<svg xmlns="http://www.w3.org/2000/svg" viewBox="0 0 400 400">
  <defs><linearGradient id="g2" x1="0" y1="0" x2="0" y2="1"><stop offset="0%" stop-color="#0D47A1"/><stop offset="100%" stop-color="#1A237E"/></linearGradient></defs>
  <rect width="400" height="400" fill="url(#g2)"/>
  <!-- Light orbs -->
  <circle cx="200" cy="200" r="80" fill="#42A5F5" opacity="0.15"/>
  <circle cx="200" cy="200" r="50" fill="#64B5F6" opacity="0.2"/>
  <circle cx="200" cy="200" r="20" fill="#BBDEFB" opacity="0.6"/>
  <circle cx="200" cy="200" r="8" fill="#fff" opacity="0.9"/>
  <!-- Floating particles -->
  <circle cx="120" cy="150" r="4" fill="#80DEEA" opacity="0.5"/>
  <circle cx="280" cy="170" r="3" fill="#80DEEA" opacity="0.4"/>
  <circle cx="160" cy="280" r="5" fill="#80DEEA" opacity="0.3"/>
  <circle cx="250" cy="120" r="3" fill="#80DEEA" opacity="0.6"/>
  <circle cx="300" cy="260" r="4" fill="#80DEEA" opacity="0.4"/>
  <circle cx="100" cy="250" r="3" fill="#80DEEA" opacity="0.5"/>
  <!-- Grid lines -->
  <g stroke="#42A5F5" stroke-width="0.5" opacity="0.15">
    <line x1="0" y1="100" x2="400" y2="100"/><line x1="0" y1="200" x2="400" y2="200"/><line x1="0" y1="300" x2="400" y2="300"/>
    <line x1="100" y1="0" x2="100" y2="400"/><line x1="200" y1="0" x2="200" y2="400"/><line x1="300" y1="0" x2="300" y2="400"/>
  </g>
  <text x="200" y="370" text-anchor="middle" font-family="sans-serif" font-size="14" fill="#64B5F6" opacity="0.6" letter-spacing="6">LUMINA</text>
</svg>
