<svg xmlns="http://www.w3.org/2000/svg" viewBox="0 0 400 400">
  <defs><linearGradient id="g5" x1="0" y1="0" x2="0" y2="1"><stop offset="0%" stop-color="#E3F2FD"/><stop offset="100%" stop-color="#BBDEFB"/></linearGradient></defs>
  <rect width="400" height="400" fill="url(#g5)"/>
  <!-- Clouds -->
  <g fill="#fff" opacity="0.8">
    <circle cx="60" cy="100" r="25"/><circle cx="85" cy="90" r="30"/><circle cx="115" cy="100" r="22"/>
    <circle cx="300" cy="150" r="20"/><circle cx="325" cy="142" r="28"/><circle cx="350" cy="150" r="18"/>
    <circle cx="180" cy="60" r="22"/><circle cx="205" cy="52" r="28"/><circle cx="230" cy="60" r="20"/>
  </g>
  <!-- Floating islands -->
  <g>
    <ellipse cx="200" cy="300" rx="100" ry="20" fill="#8D6E63"/>
    <rect x="130" y="270" width="140" height="30" rx="4" fill="#A5D6A7"/>
    <rect x="170" y="240" width="8" height="30" fill="#795548"/>
    <circle cx="174" cy="228" r="18" fill="#66BB6A"/>
  </g>
  <g>
    <ellipse cx="80" cy="220" rx="50" ry="12" fill="#8D6E63"/>
    <rect x="45" y="200" width="70" height="20" rx="4" fill="#A5D6A7"/>
  </g>
  <g>
    <ellipse cx="330" cy="240" rx="45" ry="10" fill="#8D6E63"/>
    <rect x="300" y="222" width="60" height="18" rx="4" fill="#A5D6A7"/>
  </g>
  <!-- Character -->
  <g transform="translate(185, 230)">
    <rect x="8" y="20" width="14" height="16" rx="2" fill="#42A5F5"/>
    <circle cx="15" cy="14" r="10" fill="#FFCC80"/>
    <circle cx="12" cy="12" r="2" fill="#333"/>
    <circle cx="18" cy="12" r="2" fill="#333"/>
    <path d="M11,17 Q15,20 19,17" fill="none" stroke="#E65100" stroke-width="1"/>
    <!-- Cape -->
    <path d="M22,22 Q30,35 25,40" fill="#EF5350" opacity="0.8"/>
    <rect x="6" y="36" width="6" height="10" rx="3" fill="#FFCC80"/>
    <rect x="18" y="36" width="6" height="10" rx="3" fill="#FFCC80"/>
  </g>
  <!-- Coins/collectibles -->
  <circle cx="120" cy="190" r="8" fill="#FFD54F" stroke="#FFA000" stroke-width="1.5"/>
  <circle cx="280" cy="210" r="8" fill="#FFD54F" stroke="#FFA000" stroke-width="1.5"/>
  <circle cx="200" cy="170" r="8" fill="#FFD54F" stroke="#FFA000" stroke-width="1.5"/>
  <text x="200" y="380" text-anchor="middle" font-family="sans-serif" font-size="14" fill="#1565C0" opacity="0.5" letter-spacing="5">SKYBOUND</text>
</svg>
