<svg xmlns="http://www.w3.org/2000/svg" viewBox="0 0 600 400">
  <defs><linearGradient id="g1" x1="0" y1="0" x2="1" y2="1"><stop offset="0%" stop-color="#1a1a2e"/><stop offset="100%" stop-color="#4a1942"/></linearGradient></defs>
  <rect width="600" height="400" fill="url(#g1)"/>
  <circle cx="500" cy="80" r="40" fill="#E57373" opacity="0.6"/>
  <rect x="150" y="200" width="300" height="180" rx="4" fill="#37474F"/>
  <polygon points="130,205 300,120 470,205" fill="#455A64"/>
  <rect x="260" y="280" width="80" height="100" rx="4" fill="#263238"/>
  <rect x="170" y="230" width="60" height="50" rx="2" fill="#FFE082" opacity="0.5"/>
  <rect x="370" y="230" width="60" height="50" rx="2" fill="#FFE082" opacity="0.5"/>
  <g fill="#fff" opacity="0.3"><circle cx="100" cy="50" r="1"/><circle cx="200" cy="30" r="1.5"/><circle cx="400" cy="60" r="1"/><circle cx="550" cy="40" r="1.5"/></g>
  <!-- Sword -->
  <g transform="translate(80, 180) rotate(-30)">
    <rect x="-3" y="0" width="6" height="60" rx="2" fill="#90A4AE"/>
    <rect x="-12" y="55" width="24" height="6" rx="2" fill="#FFD54F"/>
    <rect x="-4" y="60" width="8" height="20" rx="2" fill="#795548"/>
  </g>
  <text x="300" y="380" text-anchor="middle" font-family="serif" font-size="16" fill="#fff" opacity="0.5" letter-spacing="4">IRONFORGE CHRONICLES</text>
</svg>
