<svg xmlns="http://www.w3.org/2000/svg" viewBox="0 0 1920 1080">
  <defs>
    <linearGradient id="sky" x1="0" y1="0" x2="0" y2="1">
      <stop offset="0" stop-color="#AECDE0"/>
      <stop offset="0.36" stop-color="#CFE0DF"/>
      <stop offset="0.66" stop-color="#EFEADA"/>
      <stop offset="1" stop-color="#F8EFDC"/>
    </linearGradient>
    <radialGradient id="sun" cx="0.5" cy="0.5" r="0.5">
      <stop offset="0" stop-color="#FFF8E2" stop-opacity="0.95"/>
      <stop offset="0.55" stop-color="#FFF3D6" stop-opacity="0.45"/>
      <stop offset="1" stop-color="#FFF3D6" stop-opacity="0"/>
    </radialGradient>
    <radialGradient id="houseGlow" cx="0.5" cy="0.5" r="0.5">
      <stop offset="0" stop-color="#FFF4D7" stop-opacity="0.8"/>
      <stop offset="1" stop-color="#FFF4D7" stop-opacity="0"/>
    </radialGradient>
    <radialGradient id="lightPool" cx="0.5" cy="0.5" r="0.5">
      <stop offset="0" stop-color="#FBF3D2" stop-opacity="0.5"/>
      <stop offset="1" stop-color="#FBF3D2" stop-opacity="0"/>
    </radialGradient>
    <linearGradient id="wall" x1="0" y1="0" x2="1" y2="0">
      <stop offset="0" stop-color="#D14A3A"/>
      <stop offset="0.55" stop-color="#C43A2E"/>
      <stop offset="1" stop-color="#A3291F"/>
    </linearGradient>
    <linearGradient id="meadow" x1="0" y1="0" x2="0" y2="1">
      <stop offset="0" stop-color="#D2DCA6"/>
      <stop offset="1" stop-color="#EFE9BE"/>
    </linearGradient>
    <linearGradient id="beam" x1="0" y1="0" x2="0.4" y2="1">
      <stop offset="0" stop-color="#FFFFFF" stop-opacity="0.16"/>
      <stop offset="0.5" stop-color="#FFFFFF" stop-opacity="0.07"/>
      <stop offset="0.78" stop-color="#FFFFFF" stop-opacity="0"/>
      <stop offset="1" stop-color="#FFFFFF" stop-opacity="0"/>
    </linearGradient>
    <linearGradient id="haze" x1="0" y1="0" x2="0" y2="1">
      <stop offset="0" stop-color="#F6EEDC" stop-opacity="0"/>
      <stop offset="1" stop-color="#F6EEDC" stop-opacity="0.35"/>
    </linearGradient>
    <clipPath id="beamClip"><rect x="0" y="0" width="1920" height="790"/></clipPath>
    <clipPath id="mottleClip">
      <rect x="0" y="700" width="1490" height="380"/>
      <rect x="1490" y="1008" width="430" height="72"/>
    </clipPath>
    <filter id="grain" x="0" y="0" width="100%" height="100%">
      <feTurbulence type="fractalNoise" baseFrequency="0.9" numOctaves="2" stitchTiles="stitch" result="n"/>
      <feColorMatrix in="n" type="saturate" values="0"/>
      <feComponentTransfer><feFuncA type="linear" slope="0.55" intercept="0"/></feComponentTransfer>
    </filter>
    <filter id="mottle" x="-2%" y="-2%" width="104%" height="104%">
      <feTurbulence type="fractalNoise" baseFrequency="0.005 0.013" numOctaves="2" seed="9" result="n"/>
      <feColorMatrix in="n" type="matrix" values="0 0 0 0 0.36  0 0 0 0 0.47  0 0 0 0 0.24  0.7 0.7 0.7 0 -0.75"/>
      <feComposite operator="in" in2="SourceGraphic"/>
    </filter>
    <g id="pig">
      <linearGradient id="robeGrad" x1="0.18" y1="0" x2="0.6" y2="1">
        <stop offset="0" stop-color="#79814A"/>
        <stop offset="0.5" stop-color="#55612F"/>
        <stop offset="1" stop-color="#333C1D"/>
      </linearGradient>
      <linearGradient id="yokeGrad" x1="0" y1="0" x2="0.15" y2="1">
        <stop offset="0" stop-color="#5E6C3C"/>
        <stop offset="1" stop-color="#333E1F"/>
      </linearGradient>
      <radialGradient id="headGrad" cx="0.36" cy="0.30" r="0.85">
        <stop offset="0" stop-color="#BC926F"/>
        <stop offset="0.55" stop-color="#8C6653"/>
        <stop offset="1" stop-color="#523A31"/>
      </radialGradient>
      <radialGradient id="lowerGrad" cx="0.4" cy="0.32" r="0.85">
        <stop offset="0" stop-color="#414B2A"/>
        <stop offset="0.6" stop-color="#2A331A"/>
        <stop offset="1" stop-color="#1A2110"/>
      </radialGradient>
      <linearGradient id="goldGrad" x1="0" y1="0" x2="0" y2="1">
        <stop offset="0" stop-color="#E8D190"/>
        <stop offset="1" stop-color="#A88A47"/>
      </linearGradient>
      <radialGradient id="warmGlow" cx="0.3" cy="0.26" r="0.72">
        <stop offset="0" stop-color="#F4CB86" stop-opacity="0.4"/>
        <stop offset="0.62" stop-color="#E3B06B" stop-opacity="0.1"/>
        <stop offset="1" stop-color="#E3B06B" stop-opacity="0"/>
      </radialGradient>
      <clipPath id="robeClip">
        <path d="M18,-40 C13.5,-33 11.5,-25 11,-18 C10.8,-14.5 12.5,-12.8 15,-13.4 C18,-14.2 20.5,-12.4 23.5,-13.2 C26.5,-12 28.5,-14 32,-13.2 C35.5,-14 37.5,-12 40.5,-13.2 C43.5,-12.4 46,-14.2 49,-13.4 C51.5,-12.8 53.2,-14.5 53,-18 C52.5,-25 50.5,-33 46,-40 C41,-44 23,-44 18,-40 Z"/>
      </clipPath>
      <!-- ground contact shadow -->
      <ellipse cx="32" cy="2.5" rx="30" ry="5" fill="#37421F" opacity="0.32"/>
      <!-- LOWER BODY (rounded haunches, dark) -->
      <path d="M19,-18 C14.5,-13 14.5,-6 17,-2.5 C21,1 43,1 47,-2.5 C49.5,-6 49.5,-13 45,-18 Z" fill="url(#lowerGrad)"/>
      <!-- leg separation shadow -->
      <path d="M30,-1 C30.5,-5 31,-8 32,-9 C33,-8 33.5,-5 34,-1 C33,0.6 31,0.6 30,-1 Z" fill="#131810" opacity="0.55"/>
      <!-- hooves -->
      <path d="M22.5,-2.5 C22,0.4 23.6,1.4 25.6,0.9 C26.8,0.5 26.8,-0.9 26.2,-3 Z" fill="#3B2D25"/>
      <path d="M41.5,-2.5 C42,0.4 40.4,1.4 38.4,0.9 C37.2,0.5 37.2,-0.9 37.8,-3 Z" fill="#3B2D25"/>
      <!-- lower-body outer flank rim light (warm, sun upper-left) -->
      <path d="M18.6,-17 C14.8,-12 14.8,-6 16.6,-2.6" fill="none" stroke="#F0CD91" stroke-width="1.5" stroke-linecap="round" opacity="0.62"/>
      <!-- ROBE body -->
      <path d="M18,-40 C13.5,-33 11.5,-25 11,-18 C10.8,-14.5 12.5,-12.8 15,-13.4 C18,-14.2 20.5,-12.4 23.5,-13.2 C26.5,-12 28.5,-14 32,-13.2 C35.5,-14 37.5,-12 40.5,-13.2 C43.5,-12.4 46,-14.2 49,-13.4 C51.5,-12.8 53.2,-14.5 53,-18 C52.5,-25 50.5,-33 46,-40 C41,-44 23,-44 18,-40 Z" fill="url(#robeGrad)"/>
      <g clip-path="url(#robeClip)">
        <!-- vertical fold shadows (cloth volume) -->
        <path d="M39,-42 C42,-33 43,-24 43,-15 L46.5,-15 C46.5,-25 45.5,-34 44,-42 Z" fill="#2A331A" opacity="0.5"/>
        <path d="M30.6,-42 C30.2,-32 30.2,-22 30.8,-14 L33.2,-14 C33.8,-22 33.8,-32 33.4,-42 Z" fill="#283019" opacity="0.32"/>
        <path d="M22.5,-42 C21,-33 20.6,-24 21,-15 L23.4,-15 C22.8,-24 23.2,-33 25,-42 Z" fill="#2A331A" opacity="0.3"/>
        <!-- left lit drape panel (warm cloth volume) -->
        <path d="M20,-41 C16.5,-33 15,-25 14.6,-16 C14.4,-14 15.5,-13.4 17,-13.7 L19.4,-14 C18.4,-24 19,-33 22,-41 Z" fill="#7E8B5B" opacity="0.5"/>
        <!-- soft belly highlight -->
        <ellipse cx="27" cy="-27" rx="7" ry="12" fill="#8A9864" opacity="0.2"/>
        <!-- GOLD DOTTED FILIGREE FIELD (scattered over full robe) -->
        <g fill="#D2BA72" opacity="0.6">
          <circle cx="19" cy="-37" r="0.85"/><circle cx="21.5" cy="-35.6" r="0.6"/><circle cx="24" cy="-38.2" r="0.8"/><circle cx="29" cy="-37" r="0.8"/><circle cx="31.5" cy="-38.4" r="0.6"/><circle cx="35" cy="-38.2" r="0.85"/><circle cx="40" cy="-37" r="0.8"/><circle cx="45" cy="-35" r="0.85"/>
          <circle cx="16.5" cy="-32" r="0.8"/><circle cx="21.5" cy="-33.2" r="0.9"/><circle cx="26.5" cy="-32.6" r="0.8"/><circle cx="31.5" cy="-33.4" r="0.6"/><circle cx="37.5" cy="-32.6" r="0.85"/><circle cx="42.5" cy="-31.4" r="0.8"/><circle cx="47" cy="-29.2" r="0.85"/>
          <circle cx="18" cy="-27" r="0.85"/><circle cx="23" cy="-28" r="0.8"/><circle cx="28" cy="-27.4" r="0.85"/><circle cx="32" cy="-28.6" r="0.6"/><circle cx="37" cy="-27.4" r="0.8"/><circle cx="42" cy="-26.4" r="0.9"/><circle cx="46.5" cy="-24.4" r="0.8"/>
          <circle cx="16.5" cy="-22" r="0.8"/><circle cx="21.5" cy="-23" r="0.85"/><circle cx="26" cy="-22.6" r="0.8"/><circle cx="38.5" cy="-22.6" r="0.85"/><circle cx="43.5" cy="-21.4" r="0.8"/><circle cx="47" cy="-20.4" r="0.65"/>
          <circle cx="19" cy="-17.6" r="0.85"/><circle cx="23.5" cy="-18.6" r="0.65"/><circle cx="40.5" cy="-18.6" r="0.65"/><circle cx="44.5" cy="-18" r="0.85"/><circle cx="48" cy="-19.4" r="0.8"/>
          <circle cx="21" cy="-15.4" r="0.8"/><circle cx="25" cy="-15.6" r="0.75"/><circle cx="28.5" cy="-15" r="0.6"/><circle cx="35.5" cy="-15" r="0.6"/><circle cx="40" cy="-15.6" r="0.75"/><circle cx="44" cy="-15.4" r="0.8"/>
        </g>
        <g fill="none" stroke="#C6AD66" stroke-width="0.55" stroke-linecap="round" opacity="0.5">
          <path d="M21.5,-35.4 q1.4,-1.2 2.8,-0.2"/><path d="M39,-34.4 q1.4,-1.2 2.8,-0.2"/>
          <path d="M24,-25.4 q1.4,-1.2 2.8,-0.2"/><path d="M40,-24.6 q1.4,-1.2 2.8,-0.2"/>
          <path d="M20,-20.4 q1.4,-1.2 2.8,-0.2"/>
        </g>
      </g>
      <!-- HEM decorative band (scalloped) -->
      <path d="M15,-14 C18,-12.6 20.5,-13.6 23.5,-14.2 C26.5,-13.4 28.5,-14.6 32,-14 C35.5,-14.6 37.5,-13.4 40.5,-14.2 C43.5,-13.6 46,-12.6 49,-14" fill="none" stroke="url(#goldGrad)" stroke-width="1.3" opacity="0.9"/>
      <g fill="#CBB26C"><circle cx="20" cy="-12.9" r="0.85"/><circle cx="26" cy="-12.5" r="0.85"/><circle cx="32" cy="-12.7" r="0.85"/><circle cx="38" cy="-12.5" r="0.85"/><circle cx="44" cy="-12.9" r="0.85"/></g>
      <!-- YOKE / shoulder cape (V-back collar, gold trim) -->
      <path d="M14.5,-40 C12,-35 11,-30 12,-25.5 C15.5,-23.5 19.5,-24.5 22.5,-27.5 C26.5,-31 29.5,-29 32,-24.5 C34.5,-29 37.5,-31 41.5,-27.5 C44.5,-24.5 48.5,-23.5 52,-25.5 C53,-30 52,-35 49.5,-40 C41,-43 23,-43 14.5,-40 Z" fill="url(#yokeGrad)"/>
      <!-- cape right-side shade -->
      <path d="M41.5,-41 C44,-34 45,-29 44.5,-25.5 C47,-24 49.5,-24 52,-25.5 C53,-30 52,-35 49.5,-40 C47,-41.4 44,-41.6 41.5,-41 Z" fill="#2C3719" opacity="0.5"/>
      <!-- cape gold trim -->
      <path d="M12,-25.5 C15.5,-23.5 19.5,-24.5 22.5,-27.5 C26.5,-31 29.5,-29 32,-24.5 C34.5,-29 37.5,-31 41.5,-27.5 C44.5,-24.5 48.5,-23.5 52,-25.5" fill="none" stroke="url(#goldGrad)" stroke-width="1.6" stroke-linecap="round"/>
      <path d="M12,-25.5 C15.5,-23.5 19.5,-24.5 22.5,-27.5 C26.5,-31 29.5,-29 32,-24.5 C34.5,-29 37.5,-31 41.5,-27.5 C44.5,-24.5 48.5,-23.5 52,-25.5" fill="none" stroke="#F1DEA2" stroke-width="0.6" stroke-linecap="round" opacity="0.6"/>
      <!-- cape shoulder rim light (sun upper-left) -->
      <path d="M16,-39.5 Q32,-43.6 48,-39.5" fill="none" stroke="#ECD9AC" stroke-width="1.2" stroke-linecap="round" opacity="0.45"/>
      <path d="M15,-38.5 C13,-34 12.2,-30.5 12.6,-27" fill="none" stroke="#EAC68B" stroke-width="1.1" stroke-linecap="round" opacity="0.45"/>
      <!-- cape filigree dots -->
      <g fill="#CBB26C" opacity="0.5"><circle cx="20" cy="-34" r="0.75"/><circle cx="27" cy="-35" r="0.7"/><circle cx="37" cy="-35" r="0.7"/><circle cx="44" cy="-34" r="0.75"/></g>
      <!-- MEDALLION -->
      <circle cx="32" cy="-16" r="8" fill="none" stroke="#CBB26C" stroke-width="0.8" stroke-dasharray="0.5 2" opacity="0.85"/>
      <circle cx="32" cy="-16" r="6.4" fill="#2A3219"/>
      <circle cx="32" cy="-16" r="6.4" fill="none" stroke="url(#goldGrad)" stroke-width="1.7"/>
      <path d="M32,-20.6 L34.2,-16 L32,-11.4 L29.8,-16 Z" fill="url(#goldGrad)"/>
      <path d="M32,-20.6 L34.2,-16 L32,-16 Z" fill="#EAD79C"/>
      <circle cx="32" cy="-16" r="1.2" fill="#F1E0AA"/>
      <!-- curly tail (below medallion + hem, hugging lower body, with shadow) -->
      <ellipse cx="32.4" cy="-4.2" rx="2.8" ry="1.7" fill="#131810" opacity="0.32"/>
      <path d="M32,-8.4 q-3.1,0.7 -2.4,3.2 q0.7,2.1 2.7,1 q1.4,-0.9 0.2,-2.1" fill="none" stroke="#C88C84" stroke-width="1.8" stroke-linecap="round"/>
      <path d="M31.4,-7.3 q-1.8,0.5 -1.4,2" fill="none" stroke="#DBA9A0" stroke-width="0.6" stroke-linecap="round" opacity="0.7"/>
      <!-- EARS (behind head, short wide splayed pig ears) -->
      <path d="M28,-56 L18,-63 Q15.5,-62.5 16.5,-59 Q19,-53.5 27,-53.2 Z" fill="#6A4D43"/>
      <path d="M36,-56 L46,-63 Q48.5,-62.5 47.5,-59 Q45,-53.5 37,-53.2 Z" fill="#6A4D43"/>
      <!-- HEAD -->
      <ellipse cx="32" cy="-50" rx="13.5" ry="12.5" fill="url(#headGrad)"/>
      <ellipse cx="33" cy="-44" rx="10" ry="6" fill="#4A342C" opacity="0.3"/>
      <ellipse cx="27" cy="-55" rx="6" ry="5" fill="#D9BA98" opacity="0.4"/>
      <path d="M27,-39 Q32,-35.5 37,-39" fill="none" stroke="#4A352C" stroke-width="1.3" stroke-linecap="round" opacity="0.4"/>
      <!-- INNER EARS (muted pink) -->
      <path d="M27,-55.5 L20,-61 Q18.8,-60.2 19.8,-58 Q21.6,-54.6 26.2,-54 Z" fill="#C68C85"/>
      <path d="M37,-55.5 L44,-61 Q45.2,-60.2 44.2,-58 Q42.4,-54.6 37.8,-54 Z" fill="#C68C85"/>
      <!-- WARM GLOW overlay (sunset, upper-left) -->
      <ellipse cx="25" cy="-41" rx="25" ry="31" fill="url(#warmGlow)"/>
      <!-- robe outer-left silhouette rim (sunset backlight) -->
      <path d="M18,-40 C14.4,-33 12.4,-25 12,-18.5" fill="none" stroke="#EFCE94" stroke-width="1.2" stroke-linecap="round" opacity="0.5"/>
      <!-- RIM LIGHTS (sun upper-left): ear ridges + head crown + head side -->
      <path d="M18.5,-62.3 L27,-56" fill="none" stroke="#F6E7BE" stroke-width="1.5" stroke-linecap="round" opacity="0.82"/>
      <path d="M45.5,-62.3 L37,-56" fill="none" stroke="#F4E1B8" stroke-width="1.3" stroke-linecap="round" opacity="0.66"/>
      <path d="M20.3,-52 Q22,-60.4 30,-62.8" fill="none" stroke="#F8E9C2" stroke-width="2.2" stroke-linecap="round" opacity="0.82"/>
      <path d="M20.3,-52 Q18.6,-47 21,-42.5" fill="none" stroke="#EFCF94" stroke-width="1.5" stroke-linecap="round" opacity="0.6"/>
    </g>
    <g id="treeCluster">
      <path d="M-6,0 L-2,-34 L2,-34 L6,0 Z" fill="#6B5140"/>
      <path d="M-46,-32 Q-54,-44 -44,-52 Q-46,-64 -34,-68 Q-30,-78 -18,-76 Q-8,-76 -6,-66 Q0,-56 -4,-46 Q0,-34 -10,-28 Q-22,-20 -32,-26 Q-44,-24 -46,-32 Z" fill="#749868"/>
      <path d="M-20,-28 Q-28,-40 -18,-50 Q-22,-66 -8,-72 Q-8,-88 10,-88 Q28,-90 32,-76 Q46,-76 48,-62 Q58,-54 52,-42 Q56,-28 42,-24 Q32,-14 18,-18 Q4,-10 -6,-18 Q-18,-16 -20,-28 Z" fill="#7EA06F"/>
      <path d="M30,-58 Q38,-64 46,-58 Q54,-52 50,-42 Q52,-30 40,-26 Q30,-22 26,-32 Q22,-46 30,-58 Z" fill="#6F9264" opacity="0.85"/>
      <path d="M-10,-62 Q-14,-72 -2,-76 Q0,-86 12,-84 Q22,-84 22,-74 Q26,-66 16,-62 Q6,-56 -2,-60 Q-8,-56 -10,-62 Z" fill="#93B67F"/>
      <path d="M-44,-52 Q-46,-62 -36,-64 Q-34,-72 -24,-70 Q-16,-68 -18,-60 Q-14,-54 -24,-52 Q-34,-46 -44,-52 Z" fill="#93B67F" opacity="0.9"/>
    </g>
  </defs>

  <!-- SKY -->
  <rect width="1920" height="1080" fill="url(#sky)"/>
  <circle cx="400" cy="235" r="420" fill="url(#sun)"/>
  <circle cx="400" cy="235" r="56" fill="#FFF9E8" opacity="0.95"/>
  <circle cx="400" cy="235" r="90" fill="#FFF7DF" opacity="0.35"/>

  <!-- CLOUDS -->
  <g fill="#FFFFFF">
    <path d="M226,306 Q220,280 248,272 Q250,246 282,242 Q290,214 330,212 Q344,186 392,190 Q438,178 460,206 Q498,196 512,226 Q550,224 558,252 Q590,256 592,280 Q608,286 602,306 Z" opacity="0.92"/>
    <path d="M1452,266 Q1446,242 1472,234 Q1476,208 1510,206 Q1520,180 1562,180 Q1580,158 1622,164 Q1664,156 1682,182 Q1718,178 1730,206 Q1764,208 1770,234 Q1794,240 1788,266 Z" opacity="0.9"/>
    <path d="M842,196 Q838,180 856,174 Q860,158 884,156 Q896,140 924,144 Q952,138 964,156 Q988,154 994,174 Q1012,178 1006,196 Z" opacity="0.5"/>
    <path d="M108,438 Q104,424 120,419 Q124,406 144,405 Q154,392 176,396 Q198,391 208,406 Q226,404 231,419 Q245,423 240,438 Z" opacity="0.55"/>
    <path d="M1706,400 Q1702,388 1716,383 Q1719,372 1736,371 Q1744,360 1763,363 Q1781,359 1789,372 Q1804,371 1808,383 Q1820,387 1816,400 Z" opacity="0.5"/>
  </g>
  <g fill="#FFFFFF">
    <path d="M300,238 Q296,214 322,206 Q330,184 360,186 Q390,176 408,196 Q430,194 434,212 Q450,220 442,234 Q424,242 402,238 Q362,246 332,240 Q310,244 300,238 Z"/>
    <path d="M1516,214 Q1512,192 1538,186 Q1546,166 1576,168 Q1604,158 1620,176 Q1642,174 1646,192 Q1660,200 1652,212 Q1634,220 1612,214 Q1574,222 1546,216 Q1524,220 1516,214 Z"/>
  </g>
  <g fill="#D9E2E0">
    <path d="M238,306 Q246,286 284,288 Q296,268 340,272 Q376,258 424,268 Q472,258 506,272 Q544,268 562,286 Q590,288 602,306 Z" opacity="0.7"/>
    <path d="M1462,266 Q1470,248 1504,250 Q1518,234 1556,238 Q1592,226 1634,236 Q1678,228 1706,240 Q1742,238 1760,250 Q1782,252 1788,266 Z" opacity="0.7"/>
    <path d="M850,196 Q866,186 900,188 Q950,184 980,190 Q998,190 1006,196 Z" opacity="0.45"/>
  </g>

  <!-- FAR HILLS: warm sage-green ridges -->
  <path d="M0,672 C160,644 300,638 460,654 C640,672 780,632 960,644 C1150,656 1290,630 1470,648 C1640,662 1790,650 1920,660 L1920,780 L0,780 Z" fill="#D8E4D9"/>
  <path d="M0,708 C190,676 360,670 540,688 C740,706 900,668 1090,682 C1290,696 1480,670 1660,690 C1770,700 1860,696 1920,702 L1920,800 L0,800 Z" fill="#C6D8C8"/>
  <path d="M0,740 C200,712 380,718 560,726 C760,734 920,706 1120,718 C1320,730 1520,710 1700,726 L1920,738 L1920,820 L0,820 Z" fill="#B4CBBB"/>
  <!-- haze lift following ridge silhouette -->
  <path d="M0,740 C200,712 380,718 560,726 C760,734 920,706 1120,718 C1320,730 1520,710 1700,726 L1920,738 L1920,826 L0,826 Z" fill="url(#haze)"/>

  <!-- MID SAGE HILLS with hedgerows -->
  <path d="M0,772 C240,730 440,752 660,756 C920,760 1100,726 1330,748 C1540,766 1720,742 1920,762 L1920,880 L0,880 Z" fill="#B7CDA0"/>
  <g fill="#93B285" opacity="0.9">
    <circle cx="196" cy="764" r="9"/><circle cx="212" cy="766" r="7"/>
    <circle cx="448" cy="758" r="8"/><circle cx="462" cy="760" r="6"/>
    <circle cx="668" cy="760" r="7"/>
    <circle cx="1560" cy="766" r="8"/><circle cx="1578" cy="768" r="6"/>
  </g>

  <!-- PATCHWORK FIELDS (left slope, contour-following ribbons tapering into the plateau) -->
  <g>
    <path d="M0,796 C240,768 480,766 720,782 C480,792 240,798 0,828 Z" fill="#C6D49C" opacity="0.9"/>
    <path d="M0,828 C240,798 480,794 760,812 C520,824 240,836 0,872 Z" fill="#D8DBA6" opacity="0.85"/>
    <path d="M0,872 C240,836 480,830 800,850 C560,864 240,880 0,922 Z" fill="#C0CF96" opacity="0.8"/>
    <g fill="none" stroke="#A6BF88" stroke-width="2.5" opacity="0.5">
      <path d="M0,828 C240,798 480,794 760,812"/>
      <path d="M0,872 C240,836 480,830 800,850"/>
    </g>
  </g>

  <!-- HOUSE PLATEAU -->
  <path d="M580,840 C880,776 1140,756 1330,756 C1540,756 1720,788 1920,828 L1920,940 L580,940 Z" fill="#C8D6A6"/>

  <!-- HOUSE ENSEMBLE (shifted right for CTA clearance) -->
  <g transform="translate(60,0)">
    <!-- HOUSE GLOW -->
    <ellipse cx="1290" cy="668" rx="420" ry="220" fill="url(#houseGlow)"/>

    <!-- TREES BEHIND HOUSE (right) -->
    <use href="#treeCluster" transform="translate(1452,764)"/>
    <use href="#treeCluster" transform="translate(1520,776) scale(0.7)"/>
    <ellipse cx="1490" cy="770" rx="90" ry="9" fill="#7F9A6B" opacity="0.3"/>

    <!-- HOUSE -->
    <g>
      <ellipse cx="1300" cy="764" rx="170" ry="13" fill="#7F9A6B" opacity="0.35"/>
      <!-- chimneys at ridge ends -->
      <rect x="1236" y="524" width="16" height="52" fill="#A3291F"/>
      <rect x="1332" y="524" width="16" height="52" fill="#A3291F"/>
      <rect x="1233" y="518" width="22" height="7" fill="#F2E7D2"/>
      <rect x="1329" y="518" width="22" height="7" fill="#F2E7D2"/>
      <!-- roof -->
      <polygon points="1184,632 1228,566 1354,566 1398,632" fill="#7C2B22"/>
      <polygon points="1228,566 1354,566 1346,576 1236,576" fill="#96352A"/>
      <!-- side wing (right) -->
      <polygon points="1392,700 1420,676 1448,700" fill="#8A3127"/>
      <rect x="1396" y="700" width="44" height="60" fill="#AC3226"/>
      <rect x="1408" y="714" width="18" height="26" fill="#F7EDD4"/>
      <rect x="1408" y="714" width="18" height="4" fill="#D9C7A6"/>
      <!-- cornice + wall -->
      <rect x="1192" y="632" width="182" height="8" fill="#F2E7D2"/>
      <rect x="1196" y="640" width="174" height="120" fill="url(#wall)"/>
      <rect x="1196" y="640" width="174" height="7" fill="#8E2A20" opacity="0.3"/>
      <g stroke="#8E2A20" stroke-width="1" opacity="0.15">
        <line x1="1196" y1="654" x2="1370" y2="654"/><line x1="1196" y1="662" x2="1370" y2="662"/>
        <line x1="1196" y1="670" x2="1370" y2="670"/><line x1="1196" y1="678" x2="1370" y2="678"/>
        <line x1="1196" y1="686" x2="1370" y2="686"/><line x1="1196" y1="694" x2="1370" y2="694"/>
        <line x1="1196" y1="702" x2="1370" y2="702"/><line x1="1196" y1="710" x2="1370" y2="710"/>
        <line x1="1196" y1="718" x2="1370" y2="718"/><line x1="1196" y1="726" x2="1370" y2="726"/>
        <line x1="1196" y1="734" x2="1370" y2="734"/><line x1="1196" y1="742" x2="1370" y2="742"/>
        <line x1="1196" y1="750" x2="1370" y2="750"/>
      </g>
      <!-- windows -->
      <g fill="#F7EDD4">
        <rect x="1210" y="652" width="20" height="30"/><rect x="1244" y="652" width="20" height="30"/>
        <rect x="1302" y="652" width="20" height="30"/><rect x="1336" y="652" width="20" height="30"/>
        <rect x="1210" y="700" width="20" height="34"/><rect x="1244" y="700" width="20" height="34"/>
        <rect x="1302" y="700" width="20" height="34"/><rect x="1336" y="700" width="20" height="34"/>
      </g>
      <g fill="#D9C7A6">
        <rect x="1210" y="652" width="20" height="4"/><rect x="1244" y="652" width="20" height="4"/>
        <rect x="1302" y="652" width="20" height="4"/><rect x="1336" y="652" width="20" height="4"/>
        <rect x="1210" y="700" width="20" height="4"/><rect x="1244" y="700" width="20" height="4"/>
        <rect x="1302" y="700" width="20" height="4"/><rect x="1336" y="700" width="20" height="4"/>
      </g>
      <g fill="#F2E7D2">
        <rect x="1208" y="682" width="24" height="3"/><rect x="1242" y="682" width="24" height="3"/>
        <rect x="1300" y="682" width="24" height="3"/><rect x="1334" y="682" width="24" height="3"/>
        <rect x="1208" y="734" width="24" height="3"/><rect x="1242" y="734" width="24" height="3"/>
        <rect x="1300" y="734" width="24" height="3"/><rect x="1334" y="734" width="24" height="3"/>
      </g>
      <!-- door with pediment -->
      <polygon points="1262,712 1283,694 1304,712" fill="#F2E7D2"/>
      <rect x="1266" y="712" width="34" height="48" fill="#F2E7D2"/>
      <path d="M1272,760 L1272,724 Q1283,712 1294,724 L1294,760 Z" fill="#634036"/>
      <rect x="1268" y="760" width="30" height="5" fill="#E6D8BC"/>
      <!-- front hedges -->
      <path d="M1198,760 Q1210,748 1226,760 Q1240,750 1256,760 L1256,766 L1198,766 Z" fill="#7FA173"/>
      <path d="M1310,760 Q1324,750 1340,760 Q1354,750 1368,760 L1368,766 L1310,766 Z" fill="#7FA173"/>
      <!-- sunlit rim (light from left) -->
      <rect x="1196" y="640" width="3" height="120" fill="#F0A88E" opacity="0.8"/>
      <polygon points="1184,632 1228,566 1236,566 1194,632" fill="#B0503F" opacity="0.9"/>
      <!-- gentle chimney smoke -->
      <path d="M1244,512 C1238,498 1252,490 1246,476 C1240,464 1254,456 1250,442" fill="none" stroke="#FFFFFF" stroke-width="5" stroke-linecap="round" opacity="0.4"/>
    </g>

    <!-- CYPRESS FLANKS (asymmetric pair, left of house) -->
    <path d="M1166,762 C1156,730 1156,684 1166,658 C1176,684 1176,730 1166,762 Z" fill="#66875F"/>
    <path d="M1140,764 C1133,740 1133,706 1140,688 C1147,706 1147,740 1140,764 Z" fill="#749868"/>
    <ellipse cx="1156" cy="768" rx="38" ry="5" fill="#7F9A6B" opacity="0.3"/>
  </g>

  <!-- FOREGROUND MEADOW -->
  <path d="M0,880 C280,818 520,806 780,828 C1040,850 1300,848 1560,882 C1700,900 1830,914 1920,922 L1920,1080 L0,1080 Z" fill="url(#meadow)"/>
  <ellipse cx="620" cy="960" rx="480" ry="150" fill="url(#lightPool)"/>
  <!-- low-frequency grass mottle (kept clear of bottom-right animation zone) -->
  <path d="M0,880 C280,818 520,806 780,828 C1040,850 1300,848 1560,882 C1700,900 1830,914 1920,922 L1920,1080 L0,1080 Z" fill="#8FA668" filter="url(#mottle)" clip-path="url(#mottleClip)" opacity="0.16"/>
  <!-- contour curves -->
  <g stroke="#AFC489" stroke-width="3" fill="none" opacity="0.5">
    <path d="M30,940 C260,892 470,880 680,894"/>
    <path d="M10,984 C240,934 450,922 660,936"/>
    <path d="M60,1034 C280,986 480,972 660,986"/>
  </g>
  <g stroke="#C4D398" stroke-width="2.5" fill="none" opacity="0.45">
    <path d="M1120,884 C1240,892 1350,902 1450,914"/>
    <path d="M1660,1000 C1760,1016 1850,1032 1920,1044"/>
  </g>

  <!-- LEFT MID-GROUND TREE CLUSTER (poster balance) -->
  <g>
    <path d="M320,936 C420,930 520,942 600,958 C500,966 400,964 320,952 Z" fill="#9CB37D" opacity="0.5"/>
    <use href="#treeCluster" transform="translate(316,934) scale(1.15)"/>
    <use href="#treeCluster" transform="translate(414,944) scale(0.78)"/>
  </g>

  <!-- SPARSE GRASS TUFTS -->
  <g fill="none" stroke="#A8BC80" stroke-width="2.5" stroke-linecap="round" opacity="0.6">
    <path d="M238,1010 q-3,-12 2,-20 M246,1010 q3,-10 -1,-18"/>
    <path d="M412,964 q-3,-11 2,-18 M420,964 q3,-9 -1,-16"/>
    <path d="M560,1042 q-3,-12 2,-20 M568,1042 q3,-10 -1,-18"/>
    <path d="M888,986 q-3,-10 2,-17 M896,986 q3,-9 -1,-15"/>
    <path d="M1078,1006 q-3,-11 2,-18 M1086,1006 q3,-9 -1,-16"/>
    <path d="M1420,1010 q-3,-10 2,-17 M1428,1010 q3,-9 -1,-15"/>
    <path d="M736,1064 q-3,-12 2,-20 M744,1064 q3,-10 -1,-18"/>
  </g>

  <!-- PATH -->
  <path d="M480,1080 C620,976 770,928 920,894 C1070,860 1246,834 1328,770 L1358,770 C1276,846 1120,892 960,924 C820,958 700,1004 660,1080 Z" fill="#EDE0BA"/>
  <path d="M540,1080 C660,988 790,940 935,904 C1075,868 1236,840 1316,782 C1240,852 1090,898 950,930 C830,962 720,1010 664,1080 Z" fill="#F6ECCE" opacity="0.75"/>
  <!-- grounding stroke along lower path edge -->
  <path d="M480,1080 C620,976 770,928 920,894 C1070,860 1246,834 1328,770" fill="none" stroke="#C9B88E" stroke-width="3" opacity="0.4"/>
  <path d="M1358,770 C1276,846 1120,892 960,924 C820,958 700,1004 660,1080" fill="none" stroke="#C9B88E" stroke-width="2.5" opacity="0.25"/>

  <!-- PIGS -->
  <g transform="translate(952,916) scale(1.05)">
    <!-- bindle: pole over shoulder + cloth bundle (outer/left side) -->
    <path d="M24,-32 L-5,-61" stroke="#6E4B33" stroke-width="2.5" stroke-linecap="round"/>
    <path d="M-14,-60 Q-11,-71 -2,-66 Q3,-62 -1,-57 Q-8,-53 -14,-57 Z" fill="#B85B49"/>
    <path d="M-12,-60 Q-7,-67 -2,-63" fill="none" stroke="#D98C74" stroke-width="1.1" stroke-linecap="round" opacity="0.7"/>
    <path d="M-10,-56 Q-6,-58 -3,-56" fill="none" stroke="#8E4131" stroke-width="1.2" stroke-linecap="round"/>
    <use href="#pig"/>
  </g>
  <g transform="translate(1034,892) scale(0.87)">
    <use href="#pig"/>
    <!-- raised arm (sleeve + fist), toward the house -->
    <path d="M45,-33 C49,-37 51,-42 52,-46 C52.4,-48 53.8,-48.4 54.8,-47 C55.6,-45.6 55.2,-43 54.2,-40 C53.2,-37 50.6,-34 47.6,-32 Z" fill="url(#robeGrad)"/>
    <ellipse cx="54" cy="-47.5" rx="2.8" ry="2.6" fill="url(#headGrad)"/>
    <path d="M46,-33 C50,-37 52,-42 53,-46" fill="none" stroke="#ECD9AC" stroke-width="1" stroke-linecap="round" opacity="0.5"/>
    <path d="M52,-49 Q54.6,-49.6 55.4,-47.6" fill="none" stroke="#F2E0B6" stroke-width="0.9" stroke-linecap="round" opacity="0.6"/>
  </g>
  <g transform="translate(1098,871) scale(0.74)">
    <use href="#pig"/>
    <!-- walking staff (outer/right side) -->
    <path d="M53,-1 Q55,-30 54,-58" stroke="#6E4B33" stroke-width="2.6" stroke-linecap="round" fill="none"/>
    <ellipse cx="54" cy="-59" rx="3" ry="2.7" fill="#7C563B"/>
    <path d="M54,-52 Q56,-38 55,-26" stroke="#8F6A4C" stroke-width="1" stroke-linecap="round" fill="none" opacity="0.7"/>
  </g>

  <!-- BIRDS -->
  <g stroke="#6E7F86" stroke-width="2" fill="none" opacity="0.55" stroke-linecap="round">
    <path d="M1508,300 q7,-7 14,0 q7,-7 14,0"/>
    <path d="M1556,318 q6,-6 12,0 q6,-6 12,0"/>
    <path d="M1584,296 q5,-5 10,0 q5,-5 10,0"/>
  </g>

  <!-- BOTTOM-LEFT FOREGROUND CORNER -->
  <path d="M0,1008 C140,976 300,982 430,1016 C330,1046 170,1068 0,1076 Z M0,1076 L430,1016 C460,1026 480,1040 490,1080 L0,1080 Z" fill="#B4C48D" opacity="0.85"/>
  <g fill="none" stroke="#8CA96B" stroke-width="3.5" stroke-linecap="round">
    <path d="M70,1080 Q62,1022 78,984"/>
    <path d="M110,1080 Q118,1020 102,978"/>
    <path d="M156,1080 Q148,1034 164,1000"/>
    <path d="M202,1080 Q210,1040 196,1008"/>
    <path d="M42,1080 Q38,1044 50,1018"/>
  </g>
  <g fill="#B34F3F">
    <circle cx="79" cy="979" r="6"/><circle cx="101" cy="972" r="6.5"/><circle cx="165" cy="994" r="5.5"/>
  </g>
  <g fill="#C9B26A">
    <circle cx="197" cy="1003" r="4.5"/><circle cx="51" cy="1013" r="4"/>
  </g>
  <g fill="#F6EFD8" opacity="0.65">
    <circle cx="300" cy="1036" r="4"/><circle cx="360" cy="1014" r="3.5"/><circle cx="430" cy="1050" r="4"/>
    <circle cx="260" cy="1066" r="3.5"/><circle cx="510" cy="1030" r="3"/>
  </g>

  <!-- SUN BEAMS (clipped above horizon) -->
  <g clip-path="url(#beamClip)">
    <polygon points="300,0 560,0 1220,1080 850,1080" fill="url(#beam)"/>
    <polygon points="630,0 770,0 1580,1080 1340,1080" fill="url(#beam)" opacity="0.75"/>
  </g>

  <!-- GRAIN -->
  <rect width="1920" height="1080" filter="url(#grain)" opacity="0.14" style="mix-blend-mode:soft-light"/>
</svg>
