<svg xmlns="http://www.w3.org/2000/svg" viewBox="0 0 1920 1080">
  <defs>
    <linearGradient id="sky" x1="0" y1="0" x2="0" y2="1">
      <stop offset="0" stop-color="#AECDE0"/>
      <stop offset="0.36" stop-color="#CFE0DF"/>
      <stop offset="0.66" stop-color="#EFEADA"/>
      <stop offset="1" stop-color="#F8EFDC"/>
    </linearGradient>
    <radialGradient id="sun" cx="0.5" cy="0.5" r="0.5">
      <stop offset="0" stop-color="#FFF8E2" stop-opacity="0.95"/>
      <stop offset="0.55" stop-color="#FFF3D6" stop-opacity="0.45"/>
      <stop offset="1" stop-color="#FFF3D6" stop-opacity="0"/>
    </radialGradient>
    <radialGradient id="houseGlow" cx="0.5" cy="0.5" r="0.5">
      <stop offset="0" stop-color="#FFF4D7" stop-opacity="0.8"/>
      <stop offset="1" stop-color="#FFF4D7" stop-opacity="0"/>
    </radialGradient>
    <radialGradient id="lightPool" cx="0.5" cy="0.5" r="0.5">
      <stop offset="0" stop-color="#FBF3D2" stop-opacity="0.5"/>
      <stop offset="1" stop-color="#FBF3D2" stop-opacity="0"/>
    </radialGradient>
    <linearGradient id="wall" x1="0" y1="0" x2="1" y2="0">
      <stop offset="0" stop-color="#D14A3A"/>
      <stop offset="0.55" stop-color="#C43A2E"/>
      <stop offset="1" stop-color="#A3291F"/>
    </linearGradient>
    <linearGradient id="meadow" x1="0" y1="0" x2="0" y2="1">
      <stop offset="0" stop-color="#D2DCA6"/>
      <stop offset="1" stop-color="#EFE9BE"/>
    </linearGradient>
    <linearGradient id="beam" x1="0" y1="0" x2="0.4" y2="1">
      <stop offset="0" stop-color="#FFFFFF" stop-opacity="0.16"/>
      <stop offset="0.5" stop-color="#FFFFFF" stop-opacity="0.07"/>
      <stop offset="0.78" stop-color="#FFFFFF" stop-opacity="0"/>
      <stop offset="1" stop-color="#FFFFFF" stop-opacity="0"/>
    </linearGradient>
    <linearGradient id="haze" x1="0" y1="0" x2="0" y2="1">
      <stop offset="0" stop-color="#F6EEDC" stop-opacity="0"/>
      <stop offset="1" stop-color="#F6EEDC" stop-opacity="0.35"/>
    </linearGradient>
    <clipPath id="beamClip"><rect x="0" y="0" width="1920" height="790"/></clipPath>
    <clipPath id="mottleClip">
      <rect x="0" y="700" width="1490" height="380"/>
      <rect x="1490" y="1008" width="430" height="72"/>
    </clipPath>
    <filter id="grain" x="0" y="0" width="100%" height="100%">
      <feTurbulence type="fractalNoise" baseFrequency="0.9" numOctaves="2" stitchTiles="stitch" result="n"/>
      <feColorMatrix in="n" type="saturate" values="0"/>
      <feComponentTransfer><feFuncA type="linear" slope="0.55" intercept="0"/></feComponentTransfer>
    </filter>
    <filter id="mottle" x="-2%" y="-2%" width="104%" height="104%">
      <feTurbulence type="fractalNoise" baseFrequency="0.005 0.013" numOctaves="2" seed="9" result="n"/>
      <feColorMatrix in="n" type="matrix" values="0 0 0 0 0.36  0 0 0 0 0.47  0 0 0 0 0.24  0.7 0.7 0.7 0 -0.75"/>
      <feComposite operator="in" in2="SourceGraphic"/>
    </filter>
    <!-- CHARACTER GRADIENTS & FILTERS -->
    <radialGradient id="skinGirl" cx="0.38" cy="0.30" r="0.85">
      <stop offset="0" stop-color="#FBE1DC"/>
      <stop offset="0.45" stop-color="#F1C7C0"/>
      <stop offset="0.8" stop-color="#E0A9A1"/>
      <stop offset="1" stop-color="#CE928A"/>
    </radialGradient>
    <radialGradient id="skinMid" cx="0.40" cy="0.30" r="0.85">
      <stop offset="0" stop-color="#F8D6C8"/>
      <stop offset="0.5" stop-color="#EBB9A9"/>
      <stop offset="0.82" stop-color="#D89A87"/>
      <stop offset="1" stop-color="#C4836F"/>
    </radialGradient>
    <radialGradient id="skinElder" cx="0.40" cy="0.30" r="0.85">
      <stop offset="0" stop-color="#EFCBBB"/>
      <stop offset="0.5" stop-color="#DBAB99"/>
      <stop offset="0.82" stop-color="#C48F7B"/>
      <stop offset="1" stop-color="#AC7865"/>
    </radialGradient>
    <radialGradient id="snoutG" cx="0.42" cy="0.32" r="0.8">
      <stop offset="0" stop-color="#F4BDB8"/>
      <stop offset="0.6" stop-color="#E39E98"/>
      <stop offset="1" stop-color="#CB817B"/>
    </radialGradient>
    <radialGradient id="earInner" cx="0.5" cy="0.4" r="0.7">
      <stop offset="0" stop-color="#EBADA6"/>
      <stop offset="1" stop-color="#BE7C74"/>
    </radialGradient>
    <radialGradient id="blushG" cx="0.5" cy="0.5" r="0.5">
      <stop offset="0" stop-color="#F1948C" stop-opacity="0.7"/>
      <stop offset="1" stop-color="#F1948C" stop-opacity="0"/>
    </radialGradient>
    <radialGradient id="blushRose" cx="0.5" cy="0.5" r="0.5">
      <stop offset="0" stop-color="#F08A94" stop-opacity="0.82"/>
      <stop offset="0.6" stop-color="#EE8B86" stop-opacity="0.5"/>
      <stop offset="1" stop-color="#EE8B86" stop-opacity="0"/>
    </radialGradient>
    <radialGradient id="cheekHi" cx="0.5" cy="0.5" r="0.5">
      <stop offset="0" stop-color="#FFF7EC" stop-opacity="0.85"/>
      <stop offset="1" stop-color="#FFF7EC" stop-opacity="0"/>
    </radialGradient>
    <radialGradient id="headHi" cx="0.36" cy="0.26" r="0.66">
      <stop offset="0" stop-color="#FFF6EC" stop-opacity="0.5"/>
      <stop offset="0.5" stop-color="#FFF6EC" stop-opacity="0.17"/>
      <stop offset="1" stop-color="#FFF6EC" stop-opacity="0"/>
    </radialGradient>
    <linearGradient id="dressRose" x1="0.1" y1="0" x2="0.9" y2="1">
      <stop offset="0" stop-color="#F7C4B2"/>
      <stop offset="0.5" stop-color="#E89C88"/>
      <stop offset="1" stop-color="#CB7A66"/>
    </linearGradient>
    <linearGradient id="apronCream" x1="0" y1="0" x2="0.35" y2="1">
      <stop offset="0" stop-color="#FDF6E9"/>
      <stop offset="1" stop-color="#ECDDC2"/>
    </linearGradient>
    <linearGradient id="overallBlue" x1="0.1" y1="0" x2="0.9" y2="1">
      <stop offset="0" stop-color="#9EB4C4"/>
      <stop offset="0.5" stop-color="#748EA0"/>
      <stop offset="1" stop-color="#556B7C"/>
    </linearGradient>
    <linearGradient id="shirtCream" x1="0" y1="0" x2="0.35" y2="1">
      <stop offset="0" stop-color="#FCF3E4"/>
      <stop offset="1" stop-color="#EAD9BE"/>
    </linearGradient>
    <linearGradient id="cloakRusset" x1="0.1" y1="0" x2="0.9" y2="1">
      <stop offset="0" stop-color="#AD653F"/>
      <stop offset="0.5" stop-color="#88482E"/>
      <stop offset="1" stop-color="#653020"/>
    </linearGradient>
    <linearGradient id="vestBrown" x1="0" y1="0" x2="0.35" y2="1">
      <stop offset="0" stop-color="#B27C48"/>
      <stop offset="1" stop-color="#875830"/>
    </linearGradient>
    <linearGradient id="staffWood" x1="0" y1="0" x2="1" y2="0">
      <stop offset="0" stop-color="#C89A66"/>
      <stop offset="0.18" stop-color="#B98653"/>
      <stop offset="0.5" stop-color="#8E5E34"/>
      <stop offset="0.85" stop-color="#6C4525"/>
      <stop offset="1" stop-color="#583A1E"/>
    </linearGradient>
    <filter id="softBlurP" x="-60%" y="-60%" width="220%" height="220%">
      <feGaussianBlur stdDeviation="7"/>
    </filter>
    <filter id="clothTex" x="-8%" y="-8%" width="116%" height="116%">
      <feTurbulence type="fractalNoise" baseFrequency="0.028 0.055" numOctaves="2" seed="7" result="n"/>
      <feColorMatrix in="n" type="saturate" values="0" result="g"/>
      <feComponentTransfer in="g" result="a"><feFuncA type="linear" slope="0.12" intercept="0"/></feComponentTransfer>
      <feComposite in="a" in2="SourceGraphic" operator="in" result="t"/>
      <feMerge><feMergeNode in="SourceGraphic"/><feMergeNode in="t"/></feMerge>
    </filter>
    <g id="treeCluster">
      <path d="M-6,0 L-2,-34 L2,-34 L6,0 Z" fill="#6B5140"/>
      <path d="M-46,-32 Q-54,-44 -44,-52 Q-46,-64 -34,-68 Q-30,-78 -18,-76 Q-8,-76 -6,-66 Q0,-56 -4,-46 Q0,-34 -10,-28 Q-22,-20 -32,-26 Q-44,-24 -46,-32 Z" fill="#749868"/>
      <path d="M-20,-28 Q-28,-40 -18,-50 Q-22,-66 -8,-72 Q-8,-88 10,-88 Q28,-90 32,-76 Q46,-76 48,-62 Q58,-54 52,-42 Q56,-28 42,-24 Q32,-14 18,-18 Q4,-10 -6,-18 Q-18,-16 -20,-28 Z" fill="#7EA06F"/>
      <path d="M30,-58 Q38,-64 46,-58 Q54,-52 50,-42 Q52,-30 40,-26 Q30,-22 26,-32 Q22,-46 30,-58 Z" fill="#6F9264" opacity="0.85"/>
      <path d="M-10,-62 Q-14,-72 -2,-76 Q0,-86 12,-84 Q22,-84 22,-74 Q26,-66 16,-62 Q6,-56 -2,-60 Q-8,-56 -10,-62 Z" fill="#93B67F"/>
      <path d="M-44,-52 Q-46,-62 -36,-64 Q-34,-72 -24,-70 Q-16,-68 -18,-60 Q-14,-54 -24,-52 Q-34,-46 -44,-52 Z" fill="#93B67F" opacity="0.9"/>
    </g>
  </defs>

  <!-- SKY -->
  <rect width="1920" height="1080" fill="url(#sky)"/>
  <circle cx="400" cy="235" r="420" fill="url(#sun)"/>
  <circle cx="400" cy="235" r="56" fill="#FFF9E8" opacity="0.95"/>
  <circle cx="400" cy="235" r="90" fill="#FFF7DF" opacity="0.35"/>

  <!-- CLOUDS -->
  <g fill="#FFFFFF">
    <path d="M226,306 Q220,280 248,272 Q250,246 282,242 Q290,214 330,212 Q344,186 392,190 Q438,178 460,206 Q498,196 512,226 Q550,224 558,252 Q590,256 592,280 Q608,286 602,306 Z" opacity="0.92"/>
    <path d="M1452,266 Q1446,242 1472,234 Q1476,208 1510,206 Q1520,180 1562,180 Q1580,158 1622,164 Q1664,156 1682,182 Q1718,178 1730,206 Q1764,208 1770,234 Q1794,240 1788,266 Z" opacity="0.9"/>
    <path d="M842,196 Q838,180 856,174 Q860,158 884,156 Q896,140 924,144 Q952,138 964,156 Q988,154 994,174 Q1012,178 1006,196 Z" opacity="0.5"/>
    <path d="M108,438 Q104,424 120,419 Q124,406 144,405 Q154,392 176,396 Q198,391 208,406 Q226,404 231,419 Q245,423 240,438 Z" opacity="0.55"/>
    <path d="M1706,400 Q1702,388 1716,383 Q1719,372 1736,371 Q1744,360 1763,363 Q1781,359 1789,372 Q1804,371 1808,383 Q1820,387 1816,400 Z" opacity="0.5"/>
  </g>
  <g fill="#FFFFFF">
    <path d="M300,238 Q296,214 322,206 Q330,184 360,186 Q390,176 408,196 Q430,194 434,212 Q450,220 442,234 Q424,242 402,238 Q362,246 332,240 Q310,244 300,238 Z"/>
    <path d="M1516,214 Q1512,192 1538,186 Q1546,166 1576,168 Q1604,158 1620,176 Q1642,174 1646,192 Q1660,200 1652,212 Q1634,220 1612,214 Q1574,222 1546,216 Q1524,220 1516,214 Z"/>
  </g>
  <g fill="#D9E2E0">
    <path d="M238,306 Q246,286 284,288 Q296,268 340,272 Q376,258 424,268 Q472,258 506,272 Q544,268 562,286 Q590,288 602,306 Z" opacity="0.7"/>
    <path d="M1462,266 Q1470,248 1504,250 Q1518,234 1556,238 Q1592,226 1634,236 Q1678,228 1706,240 Q1742,238 1760,250 Q1782,252 1788,266 Z" opacity="0.7"/>
    <path d="M850,196 Q866,186 900,188 Q950,184 980,190 Q998,190 1006,196 Z" opacity="0.45"/>
  </g>

  <!-- FAR HILLS: warm sage-green ridges -->
  <path d="M0,672 C160,644 300,638 460,654 C640,672 780,632 960,644 C1150,656 1290,630 1470,648 C1640,662 1790,650 1920,660 L1920,780 L0,780 Z" fill="#D8E4D9"/>
  <path d="M0,708 C190,676 360,670 540,688 C740,706 900,668 1090,682 C1290,696 1480,670 1660,690 C1770,700 1860,696 1920,702 L1920,800 L0,800 Z" fill="#C6D8C8"/>
  <path d="M0,740 C200,712 380,718 560,726 C760,734 920,706 1120,718 C1320,730 1520,710 1700,726 L1920,738 L1920,820 L0,820 Z" fill="#B4CBBB"/>
  <!-- haze lift following ridge silhouette -->
  <path d="M0,740 C200,712 380,718 560,726 C760,734 920,706 1120,718 C1320,730 1520,710 1700,726 L1920,738 L1920,826 L0,826 Z" fill="url(#haze)"/>

  <!-- MID SAGE HILLS with hedgerows -->
  <path d="M0,772 C240,730 440,752 660,756 C920,760 1100,726 1330,748 C1540,766 1720,742 1920,762 L1920,880 L0,880 Z" fill="#B7CDA0"/>
  <g fill="#93B285" opacity="0.9">
    <circle cx="196" cy="764" r="9"/><circle cx="212" cy="766" r="7"/>
    <circle cx="448" cy="758" r="8"/><circle cx="462" cy="760" r="6"/>
    <circle cx="668" cy="760" r="7"/>
    <circle cx="1560" cy="766" r="8"/><circle cx="1578" cy="768" r="6"/>
  </g>

  <!-- PATCHWORK FIELDS (left slope, contour-following ribbons tapering into the plateau) -->
  <g>
    <path d="M0,796 C240,768 480,766 720,782 C480,792 240,798 0,828 Z" fill="#C6D49C" opacity="0.9"/>
    <path d="M0,828 C240,798 480,794 760,812 C520,824 240,836 0,872 Z" fill="#D8DBA6" opacity="0.85"/>
    <path d="M0,872 C240,836 480,830 800,850 C560,864 240,880 0,922 Z" fill="#C0CF96" opacity="0.8"/>
    <g fill="none" stroke="#A6BF88" stroke-width="2.5" opacity="0.5">
      <path d="M0,828 C240,798 480,794 760,812"/>
      <path d="M0,872 C240,836 480,830 800,850"/>
    </g>
  </g>

  <!-- HOUSE PLATEAU -->
  <path d="M580,840 C880,776 1140,756 1330,756 C1540,756 1720,788 1920,828 L1920,940 L580,940 Z" fill="#C8D6A6"/>

  <!-- HOUSE ENSEMBLE (shifted right for CTA clearance) -->
  <g transform="translate(60,0)">
    <!-- HOUSE GLOW -->
    <ellipse cx="1290" cy="668" rx="420" ry="220" fill="url(#houseGlow)"/>

    <!-- TREES BEHIND HOUSE (right) -->
    <use href="#treeCluster" transform="translate(1452,764)"/>
    <use href="#treeCluster" transform="translate(1520,776) scale(0.7)"/>
    <ellipse cx="1490" cy="770" rx="90" ry="9" fill="#7F9A6B" opacity="0.3"/>

    <!-- HOUSE -->
    <g>
      <ellipse cx="1300" cy="764" rx="170" ry="13" fill="#7F9A6B" opacity="0.35"/>
      <!-- chimneys at ridge ends -->
      <rect x="1236" y="524" width="16" height="52" fill="#A3291F"/>
      <rect x="1332" y="524" width="16" height="52" fill="#A3291F"/>
      <rect x="1233" y="518" width="22" height="7" fill="#F2E7D2"/>
      <rect x="1329" y="518" width="22" height="7" fill="#F2E7D2"/>
      <!-- roof -->
      <polygon points="1184,632 1228,566 1354,566 1398,632" fill="#7C2B22"/>
      <polygon points="1228,566 1354,566 1346,576 1236,576" fill="#96352A"/>
      <!-- side wing (right) -->
      <polygon points="1392,700 1420,676 1448,700" fill="#8A3127"/>
      <rect x="1396" y="700" width="44" height="60" fill="#AC3226"/>
      <rect x="1408" y="714" width="18" height="26" fill="#F7EDD4"/>
      <rect x="1408" y="714" width="18" height="4" fill="#D9C7A6"/>
      <!-- cornice + wall -->
      <rect x="1192" y="632" width="182" height="8" fill="#F2E7D2"/>
      <rect x="1196" y="640" width="174" height="120" fill="url(#wall)"/>
      <rect x="1196" y="640" width="174" height="7" fill="#8E2A20" opacity="0.3"/>
      <g stroke="#8E2A20" stroke-width="1" opacity="0.15">
        <line x1="1196" y1="654" x2="1370" y2="654"/><line x1="1196" y1="662" x2="1370" y2="662"/>
        <line x1="1196" y1="670" x2="1370" y2="670"/><line x1="1196" y1="678" x2="1370" y2="678"/>
        <line x1="1196" y1="686" x2="1370" y2="686"/><line x1="1196" y1="694" x2="1370" y2="694"/>
        <line x1="1196" y1="702" x2="1370" y2="702"/><line x1="1196" y1="710" x2="1370" y2="710"/>
        <line x1="1196" y1="718" x2="1370" y2="718"/><line x1="1196" y1="726" x2="1370" y2="726"/>
        <line x1="1196" y1="734" x2="1370" y2="734"/><line x1="1196" y1="742" x2="1370" y2="742"/>
        <line x1="1196" y1="750" x2="1370" y2="750"/>
      </g>
      <!-- windows -->
      <g fill="#F7EDD4">
        <rect x="1210" y="652" width="20" height="30"/><rect x="1244" y="652" width="20" height="30"/>
        <rect x="1302" y="652" width="20" height="30"/><rect x="1336" y="652" width="20" height="30"/>
        <rect x="1210" y="700" width="20" height="34"/><rect x="1244" y="700" width="20" height="34"/>
        <rect x="1302" y="700" width="20" height="34"/><rect x="1336" y="700" width="20" height="34"/>
      </g>
      <g fill="#D9C7A6">
        <rect x="1210" y="652" width="20" height="4"/><rect x="1244" y="652" width="20" height="4"/>
        <rect x="1302" y="652" width="20" height="4"/><rect x="1336" y="652" width="20" height="4"/>
        <rect x="1210" y="700" width="20" height="4"/><rect x="1244" y="700" width="20" height="4"/>
        <rect x="1302" y="700" width="20" height="4"/><rect x="1336" y="700" width="20" height="4"/>
      </g>
      <g fill="#F2E7D2">
        <rect x="1208" y="682" width="24" height="3"/><rect x="1242" y="682" width="24" height="3"/>
        <rect x="1300" y="682" width="24" height="3"/><rect x="1334" y="682" width="24" height="3"/>
        <rect x="1208" y="734" width="24" height="3"/><rect x="1242" y="734" width="24" height="3"/>
        <rect x="1300" y="734" width="24" height="3"/><rect x="1334" y="734" width="24" height="3"/>
      </g>
      <!-- door with pediment -->
      <polygon points="1262,712 1283,694 1304,712" fill="#F2E7D2"/>
      <rect x="1266" y="712" width="34" height="48" fill="#F2E7D2"/>
      <path d="M1272,760 L1272,724 Q1283,712 1294,724 L1294,760 Z" fill="#634036"/>
      <rect x="1268" y="760" width="30" height="5" fill="#E6D8BC"/>
      <!-- front hedges -->
      <path d="M1198,760 Q1210,748 1226,760 Q1240,750 1256,760 L1256,766 L1198,766 Z" fill="#7FA173"/>
      <path d="M1310,760 Q1324,750 1340,760 Q1354,750 1368,760 L1368,766 L1310,766 Z" fill="#7FA173"/>
      <!-- sunlit rim (light from left) -->
      <rect x="1196" y="640" width="3" height="120" fill="#F0A88E" opacity="0.8"/>
      <polygon points="1184,632 1228,566 1236,566 1194,632" fill="#B0503F" opacity="0.9"/>
      <!-- gentle chimney smoke -->
      <path d="M1244,512 C1238,498 1252,490 1246,476 C1240,464 1254,456 1250,442" fill="none" stroke="#FFFFFF" stroke-width="5" stroke-linecap="round" opacity="0.4"/>
    </g>

    <!-- CYPRESS FLANKS (asymmetric pair, left of house) -->
    <path d="M1166,762 C1156,730 1156,684 1166,658 C1176,684 1176,730 1166,762 Z" fill="#66875F"/>
    <path d="M1140,764 C1133,740 1133,706 1140,688 C1147,706 1147,740 1140,764 Z" fill="#749868"/>
    <ellipse cx="1156" cy="768" rx="38" ry="5" fill="#7F9A6B" opacity="0.3"/>
  </g>

  <!-- FOREGROUND MEADOW -->
  <path d="M0,880 C280,818 520,806 780,828 C1040,850 1300,848 1560,882 C1700,900 1830,914 1920,922 L1920,1080 L0,1080 Z" fill="url(#meadow)"/>
  <ellipse cx="620" cy="960" rx="480" ry="150" fill="url(#lightPool)"/>
  <!-- low-frequency grass mottle (kept clear of bottom-right animation zone) -->
  <path d="M0,880 C280,818 520,806 780,828 C1040,850 1300,848 1560,882 C1700,900 1830,914 1920,922 L1920,1080 L0,1080 Z" fill="#8FA668" filter="url(#mottle)" clip-path="url(#mottleClip)" opacity="0.16"/>
  <!-- contour curves -->
  <g stroke="#AFC489" stroke-width="3" fill="none" opacity="0.5">
    <path d="M30,940 C260,892 470,880 680,894"/>
    <path d="M10,984 C240,934 450,922 660,936"/>
    <path d="M60,1034 C280,986 480,972 660,986"/>
  </g>
  <g stroke="#C4D398" stroke-width="2.5" fill="none" opacity="0.45">
    <path d="M1120,884 C1240,892 1350,902 1450,914"/>
    <path d="M1660,1000 C1760,1016 1850,1032 1920,1044"/>
  </g>

  <!-- LEFT MID-GROUND TREE CLUSTER (poster balance) -->
  <g>
    <path d="M320,936 C420,930 520,942 600,958 C500,966 400,964 320,952 Z" fill="#9CB37D" opacity="0.5"/>
    <use href="#treeCluster" transform="translate(316,934) scale(1.15)"/>
    <use href="#treeCluster" transform="translate(414,944) scale(0.78)"/>
  </g>

  <!-- SPARSE GRASS TUFTS -->
  <g fill="none" stroke="#A8BC80" stroke-width="2.5" stroke-linecap="round" opacity="0.6">
    <path d="M238,1010 q-3,-12 2,-20 M246,1010 q3,-10 -1,-18"/>
    <path d="M412,964 q-3,-11 2,-18 M420,964 q3,-9 -1,-16"/>
    <path d="M560,1042 q-3,-12 2,-20 M568,1042 q3,-10 -1,-18"/>
    <path d="M888,986 q-3,-10 2,-17 M896,986 q3,-9 -1,-15"/>
    <path d="M1078,1006 q-3,-11 2,-18 M1086,1006 q3,-9 -1,-16"/>
    <path d="M1420,1010 q-3,-10 2,-17 M1428,1010 q3,-9 -1,-15"/>
    <path d="M736,1064 q-3,-12 2,-20 M744,1064 q3,-10 -1,-18"/>
  </g>

  <!-- PATH -->
  <path d="M480,1080 C620,976 770,928 920,894 C1070,860 1246,834 1328,770 L1358,770 C1276,846 1120,892 960,924 C820,958 700,1004 660,1080 Z" fill="#EDE0BA"/>
  <path d="M540,1080 C660,988 790,940 935,904 C1075,868 1236,840 1316,782 C1240,852 1090,898 950,930 C830,962 720,1010 664,1080 Z" fill="#F6ECCE" opacity="0.75"/>
  <!-- grounding stroke along lower path edge -->
  <path d="M480,1080 C620,976 770,928 920,894 C1070,860 1246,834 1328,770" fill="none" stroke="#C9B88E" stroke-width="3" opacity="0.4"/>
  <path d="M1358,770 C1276,846 1120,892 960,924 C820,958 700,1004 660,1080" fill="none" stroke="#C9B88E" stroke-width="2.5" opacity="0.25"/>

  <!-- PIGS: three brothers, foreground -->

  <!-- GIRL PIG (left) -->
  <g transform="translate(-75,-54.3) scale(1.06)">
    <ellipse cx="819" cy="1020" rx="84" ry="14" fill="#556848" opacity="0.30" filter="url(#softBlurP)"/>
    <ellipse cx="819" cy="1016" rx="50" ry="8" fill="#4C6040" opacity="0.24" filter="url(#softBlurP)"/>
    <ellipse cx="798" cy="1010" rx="20" ry="11" fill="#9C6A62"/>
    <ellipse cx="842" cy="1010" rx="20" ry="11" fill="#8C5D57"/>
    <ellipse cx="794" cy="1005" rx="10" ry="4" fill="#C69A8E" opacity="0.7"/>
    <ellipse cx="838" cy="1005" rx="9" ry="3.6" fill="#B98D82" opacity="0.6"/>
    <path d="M744,1002 C748,948 762,905 786,888 C800,880 832,880 846,888 C872,905 886,948 892,1002 C858,1015 778,1015 744,1002 Z" fill="url(#dressRose)" filter="url(#clothTex)"/>
    <path d="M744,1002 C748,948 762,905 786,888 C800,880 832,880 846,888 C872,905 886,948 892,1002" fill="none" stroke="#FBE3CE" stroke-width="1.8" stroke-linecap="round" opacity="0.5"/>
    <path d="M846,888 C872,905 886,948 892,1002 C874,1009 852,1012 833,1013 C842,968 844,924 840,890 Z" fill="#B4664F" opacity="0.34"/>
    <path d="M748,998 C752,948 764,908 786,890" fill="none" stroke="#F9D6BE" stroke-width="5" stroke-linecap="round" opacity="0.55"/>
    <path d="M748,1001 C776,1012 862,1012 890,1001" fill="none" stroke="#A85B47" stroke-width="2.4" stroke-linecap="round" opacity="0.5"/>
    <path d="M786,930 C784,956 783,980 781,1001" fill="none" stroke="#BA6A52" stroke-width="4" stroke-linecap="round" opacity="0.36"/>
    <path d="M850,930 C852,956 854,980 856,1001" fill="none" stroke="#BA6A52" stroke-width="4" stroke-linecap="round" opacity="0.34"/>
    <path d="M766,952 C765,974 764,990 763,1002" fill="none" stroke="#F7CBB6" stroke-width="3" stroke-linecap="round" opacity="0.5"/>
    <path d="M872,954 C873,976 874,990 875,1002" fill="none" stroke="#F7CBB6" stroke-width="3" stroke-linecap="round" opacity="0.42"/>
    <ellipse cx="782" cy="898" rx="18" ry="15" fill="url(#dressRose)"/>
    <ellipse cx="852" cy="898" rx="18" ry="15" fill="url(#dressRose)"/>
    <ellipse cx="776" cy="892" rx="8" ry="6" fill="#F9D6BE" opacity="0.5"/>
    <path d="M784,904 C790,918 800,926 812,930" fill="none" stroke="url(#skinGirl)" stroke-width="15" stroke-linecap="round"/>
    <path d="M850,904 C844,918 834,926 824,930" fill="none" stroke="url(#skinGirl)" stroke-width="15" stroke-linecap="round"/>
    <path d="M792,916 C790,950 795,980 804,998 L832,998 C841,980 846,950 844,916 C832,922 804,922 792,916 Z" fill="url(#apronCream)"/>
    <path d="M796,868 L804,892 L832,892 L840,868 C826,862 810,862 796,868 Z" fill="url(#apronCream)"/>
    <path d="M800,892 L795,872" stroke="#F3E6CC" stroke-width="6" stroke-linecap="round"/>
    <path d="M836,892 L841,872" stroke="#E9D8BC" stroke-width="6" stroke-linecap="round"/>
    <path d="M790,914 C808,920 828,920 846,914" fill="none" stroke="#D98B72" stroke-width="7" stroke-linecap="round"/>
    <path d="M800,996 q4,7 9,0 q4,7 9,0 q4,7 9,0" fill="none" stroke="#EBDDC2" stroke-width="3"/>
    <ellipse cx="812" cy="931" rx="12" ry="10" fill="url(#skinGirl)"/>
    <ellipse cx="825" cy="931" rx="12" ry="10" fill="url(#skinGirl)"/>
    <path d="M814,930 C813,922 812,916 810,910 M822,930 C823,922 824,916 826,910" fill="none" stroke="#8FAE6B" stroke-width="2.2" stroke-linecap="round"/>
    <circle cx="809" cy="910" r="5" fill="#EFA7C0"/>
    <circle cx="823" cy="908" r="5" fill="#F2A9B0"/>
    <circle cx="816" cy="904" r="4.6" fill="#F6C2C7"/>
    <circle cx="816" cy="911" r="4.4" fill="#F4B6BC"/>
    <circle cx="816" cy="908" r="2.2" fill="#F6D06A"/>
    <ellipse cx="819" cy="887" rx="33" ry="10" fill="#9B6B58" opacity="0.15" filter="url(#softBlurP)"/>
    <path d="M806,872 C808,882 828,882 830,872 L830,860 L806,860 Z" fill="url(#skinGirl)"/>
    <ellipse cx="818" cy="828" rx="56" ry="53" fill="url(#skinGirl)"/>
    <ellipse cx="818" cy="828" rx="56" ry="53" fill="none" stroke="#F9E1CB" stroke-width="1.4" opacity="0.42"/>
    <ellipse cx="804" cy="814" rx="42" ry="39" fill="url(#headHi)"/>
    <path d="M778,796 C766,776 782,762 795,772 C803,779 802,796 795,806 C787,810 782,806 778,796 Z" fill="url(#skinGirl)"/>
    <path d="M858,796 C870,776 854,762 841,772 C833,779 834,796 841,806 C849,810 854,806 858,796 Z" fill="url(#skinGirl)"/>
    <path d="M783,794 C776,782 786,774 793,781 C797,786 796,796 792,801 Z" fill="url(#earInner)"/>
    <path d="M853,794 C860,782 850,774 843,781 C839,786 840,796 844,801 Z" fill="url(#earInner)"/>
    <ellipse cx="836" cy="846" rx="24" ry="18" fill="url(#snoutG)"/>
    <ellipse cx="832" cy="839" rx="12" ry="5" fill="#FBDDD6" opacity="0.6"/>
    <ellipse cx="829" cy="847" rx="3.4" ry="5.4" fill="#B26E6A"/>
    <ellipse cx="843" cy="847" rx="3.4" ry="5.4" fill="#B26E6A"/>
    <ellipse cx="794" cy="843" rx="14" ry="9.5" fill="url(#blushRose)"/>
    <ellipse cx="856" cy="841" rx="12.5" ry="8.5" fill="url(#blushRose)"/>
    <ellipse cx="800" cy="834" rx="7" ry="5" fill="url(#cheekHi)"/>
    <ellipse cx="805" cy="821" rx="7.6" ry="10" fill="#3B2A2A"/>
    <ellipse cx="841" cy="820" rx="7.6" ry="10" fill="#3B2A2A"/>
    <ellipse cx="805" cy="824" rx="6.2" ry="8" fill="#4A3230"/>
    <ellipse cx="841" cy="823" rx="6.2" ry="8" fill="#4A3230"/>
    <circle cx="802.4" cy="816.4" r="3" fill="#FFFFFF"/>
    <circle cx="838.4" cy="815.4" r="3" fill="#FFFFFF"/>
    <circle cx="808" cy="824.5" r="1.6" fill="#FFFFFF" opacity="0.85"/>
    <circle cx="844" cy="823.5" r="1.6" fill="#FFFFFF" opacity="0.85"/>
    <path d="M796,813 C800,808 810,808 815,813" fill="none" stroke="#3B2A2A" stroke-width="2.4" stroke-linecap="round"/>
    <path d="M832,812 C836,807 846,807 851,812" fill="none" stroke="#3B2A2A" stroke-width="2.4" stroke-linecap="round"/>
    <path d="M796,813 q-7,-2 -12,-8 M798,810 q-7,-4 -10,-10" fill="none" stroke="#3B2A2A" stroke-width="1.9" stroke-linecap="round"/>
    <path d="M851,812 q7,-2 12,-8 M849,809 q7,-4 10,-10" fill="none" stroke="#3B2A2A" stroke-width="1.9" stroke-linecap="round"/>
    <path d="M798,806 C804,803 812,804 816,807" fill="none" stroke="#C58A80" stroke-width="2" stroke-linecap="round" opacity="0.6"/>
    <path d="M832,805 C836,802 844,803 850,806" fill="none" stroke="#C58A80" stroke-width="2" stroke-linecap="round" opacity="0.6"/>
    <path d="M824,863 C831,872 843,872 850,862" fill="none" stroke="#A85B54" stroke-width="2.6" stroke-linecap="round"/>
    <path d="M829,868 C835,871 840,871 845,868" fill="none" stroke="#F3B3A6" stroke-width="1.4" stroke-linecap="round" opacity="0.7"/>
    <path d="M800,777 A56 53 0 0 0 764,818" fill="none" stroke="#FFF4DA" stroke-width="3.2" stroke-linecap="round" opacity="0.38"/>
    <circle cx="784" cy="792" r="6.6" fill="#F2A9B0"/>
    <circle cx="774" cy="788" r="6.1" fill="#F4B6BC"/>
    <circle cx="778" cy="778" r="6.1" fill="#F2A9B0"/>
    <circle cx="789" cy="780" r="6.1" fill="#F6C2C7"/>
    <circle cx="800" cy="782" r="4.5" fill="#EB8FA6"/>
    <circle cx="812" cy="777" r="3.6" fill="#F6C2C7"/>
    <g fill="none" stroke="#D97C93" stroke-width="1" opacity="0.5">
      <circle cx="784" cy="792" r="6.6"/><circle cx="774" cy="788" r="6.1"/><circle cx="778" cy="778" r="6.1"/><circle cx="789" cy="780" r="6.1"/>
    </g>
    <circle cx="782" cy="784" r="4.2" fill="#F6D06A"/>
    <circle cx="782" cy="784" r="4.2" fill="none" stroke="#E0A83E" stroke-width="0.8" opacity="0.6"/>
    <circle cx="780.6" cy="782.6" r="1.5" fill="#FFF0C4"/>
    <path d="M853,802 L839,795 Q835,802 839,809 Z" fill="#E9A085"/>
    <path d="M853,802 L867,795 Q871,802 867,809 Z" fill="#EFAE93"/>
    <g fill="none" stroke="#CE7E63" stroke-width="0.9" opacity="0.55">
      <path d="M853,802 L839,795 Q835,802 839,809 Z"/><path d="M853,802 L867,795 Q871,802 867,809 Z"/>
    </g>
    <circle cx="853" cy="802" r="4.2" fill="#DE9179"/>
    <circle cx="851.4" cy="800.4" r="1.5" fill="#F6D3C4" opacity="0.85"/>
  </g>

  <!-- ELDER PIG (right) with staff -->
  <g transform="translate(-38.5,-54.6) scale(1.06)">
    <ellipse cx="1108" cy="1016" rx="94" ry="15" fill="#556848" opacity="0.30" filter="url(#softBlurP)"/>
    <ellipse cx="1108" cy="1013" rx="56" ry="9" fill="#4C6040" opacity="0.24" filter="url(#softBlurP)"/>
    <ellipse cx="1178" cy="1016" rx="14" ry="6" fill="#4C6040" opacity="0.28" filter="url(#softBlurP)"/>
    <path d="M1080,972 C1078,992 1079,1004 1086,1012 L1104,1012 C1106,1002 1105,988 1104,972 Z" fill="#6E5236"/>
    <path d="M1112,972 C1111,986 1110,1000 1112,1012 L1130,1012 C1137,1004 1138,992 1136,972 Z" fill="#63492F"/>
    <ellipse cx="1092" cy="1014" rx="16" ry="10" fill="#4A3524"/>
    <ellipse cx="1124" cy="1014" rx="16" ry="10" fill="#42301F"/>
    <ellipse cx="1088" cy="1011" rx="7" ry="3" fill="#6B5038" opacity="0.7"/>
    <path d="M1066,872 C1030,892 1018,948 1024,1006 C1040,1014 1058,1014 1072,1008 C1064,958 1062,908 1070,878 Z" fill="url(#cloakRusset)" filter="url(#clothTex)"/>
    <path d="M1150,872 C1186,892 1198,948 1192,1006 C1176,1014 1158,1014 1144,1008 C1152,958 1154,908 1146,878 Z" fill="url(#cloakRusset)" filter="url(#clothTex)"/>
    <path d="M1150,872 C1186,892 1198,948 1192,1006 C1180,1011 1168,1013 1158,1013 C1162,958 1160,908 1152,876 Z" fill="#54281A" opacity="0.42"/>
    <path d="M1058,896 C1048,930 1044,972 1050,1004" fill="none" stroke="#5E2E1D" stroke-width="3.5" stroke-linecap="round" opacity="0.45"/>
    <path d="M1160,896 C1172,930 1176,972 1170,1004" fill="none" stroke="#4E2617" stroke-width="3.5" stroke-linecap="round" opacity="0.5"/>
    <path d="M1066,874 C1032,894 1021,948 1026,1004" fill="none" stroke="#D69568" stroke-width="2.4" stroke-linecap="round" opacity="0.6"/>
    <path d="M1150,874 C1184,894 1195,948 1190,1004" fill="none" stroke="#C67C4E" stroke-width="2.2" stroke-linecap="round" opacity="0.42"/>
    <path d="M1064,876 C1080,860 1136,860 1152,876 C1146,892 1130,898 1108,898 C1086,898 1070,892 1064,876 Z" fill="url(#cloakRusset)"/>
    <path d="M1068,874 C1084,864 1132,864 1148,874" fill="none" stroke="#D69568" stroke-width="2.6" stroke-linecap="round" opacity="0.6"/>
    <path d="M1058,890 C1050,930 1052,978 1066,1006 C1088,1015 1128,1015 1150,1006 C1164,978 1166,930 1158,890 C1128,905 1088,905 1058,890 Z" fill="url(#vestBrown)" filter="url(#clothTex)"/>
    <path d="M1158,890 C1166,930 1164,978 1150,1006 C1140,1011 1128,1013 1118,1013 C1130,972 1132,924 1128,900 Z" fill="#6E4623" opacity="0.34"/>
    <path d="M1060,892 C1052,930 1054,976 1067,1004" fill="none" stroke="#C79357" stroke-width="2.2" stroke-linecap="round" opacity="0.5"/>
    <path d="M1092,882 L1108,902 L1124,882 C1121,893 1116,900 1108,903 C1100,900 1095,893 1092,882 Z" fill="url(#shirtCream)"/>
    <path d="M1080,886 L1108,912 L1136,886" fill="none" stroke="#6E4623" stroke-width="2.4" stroke-linecap="round" opacity="0.55"/>
    <circle cx="1108" cy="930" r="4" fill="#E8C86A"/><circle cx="1108" cy="930" r="4" fill="none" stroke="#C9A544" stroke-width="0.8"/>
    <circle cx="1108" cy="956" r="4" fill="#E8C86A"/><circle cx="1108" cy="956" r="4" fill="none" stroke="#C9A544" stroke-width="0.8"/>
    <circle cx="1108" cy="982" r="4" fill="#E8C86A"/><circle cx="1108" cy="982" r="4" fill="none" stroke="#C9A544" stroke-width="0.8"/>
    <path d="M1062,900 C1054,928 1053,956 1057,980" fill="none" stroke="url(#shirtCream)" stroke-width="19" stroke-linecap="round"/>
    <path d="M1066,906 C1059,930 1058,954 1061,976" fill="none" stroke="#D6C4A9" stroke-width="5" stroke-linecap="round" opacity="0.45"/>
    <ellipse cx="1056" cy="982" rx="13" ry="12" fill="url(#skinElder)"/>
    <path d="M1050,978 C1049,984 1052,988 1056,989 M1055,976 C1055,983 1058,987 1062,988 M1060,977 C1061,984 1064,987 1067,987" fill="none" stroke="url(#skinElder)" stroke-width="5" stroke-linecap="round"/>
    <path d="M1181,1014 C1177,928 1174,828 1171,728" fill="none" stroke="url(#staffWood)" stroke-width="13" stroke-linecap="round"/>
    <path d="M1178,1010 C1174,926 1171,828 1169,730" fill="none" stroke="#6C4525" stroke-width="2.5" stroke-linecap="round" opacity="0.5"/>
    <path d="M1184,970 C1182,900 1180,830 1178,760" fill="none" stroke="#D8AE77" stroke-width="2" stroke-linecap="round" opacity="0.5"/>
    <ellipse cx="1170" cy="726" rx="14" ry="16" fill="url(#staffWood)"/>
    <ellipse cx="1165" cy="720" rx="5" ry="6" fill="#D8AE77" opacity="0.6"/>
    <path d="M1152,904 C1164,884 1170,862 1172,846" fill="none" stroke="url(#shirtCream)" stroke-width="21" stroke-linecap="round"/>
    <ellipse cx="1172" cy="846" rx="15" ry="13" fill="url(#skinElder)"/>
    <path d="M1162,842 C1162,836 1168,836 1168,842 M1169,840 C1169,834 1175,834 1175,841 M1176,842 C1176,837 1182,838 1181,844" fill="none" stroke="url(#skinElder)" stroke-width="6" stroke-linecap="round"/>
    <ellipse cx="1108" cy="800" rx="58" ry="55" fill="url(#skinElder)"/>
    <path d="M1064,774 C1049,748 1064,728 1081,744 C1090,753 1089,773 1080,783 C1070,787 1068,783 1064,774 Z" fill="url(#skinElder)"/>
    <path d="M1152,774 C1167,748 1152,728 1135,744 C1126,753 1127,773 1136,783 C1146,787 1148,783 1152,774 Z" fill="url(#skinElder)"/>
    <path d="M1071,768 C1062,752 1073,742 1081,752 C1086,759 1085,771 1079,777 Z" fill="url(#earInner)"/>
    <path d="M1145,768 C1154,752 1143,742 1135,752 C1130,759 1131,771 1137,777 Z" fill="url(#earInner)"/>
    <ellipse cx="1108" cy="800" rx="58" ry="55" fill="none" stroke="#F6D9C0" stroke-width="1.4" opacity="0.4"/>
    <ellipse cx="1092" cy="783" rx="42" ry="38" fill="url(#headHi)"/>
    <ellipse cx="1120" cy="818" rx="30" ry="22" fill="url(#snoutG)"/>
    <ellipse cx="1114" cy="810" rx="15" ry="6" fill="#FBDDD6" opacity="0.55"/>
    <ellipse cx="1111" cy="819" rx="4" ry="7" fill="#B26E6A"/>
    <ellipse cx="1129" cy="819" rx="4" ry="7" fill="#B26E6A"/>
    <ellipse cx="1078" cy="816" rx="13" ry="9" fill="url(#blushG)"/>
    <ellipse cx="1146" cy="814" rx="12" ry="8" fill="url(#blushG)"/>
    <ellipse cx="1093" cy="792" rx="7.3" ry="9" fill="#3B2A2A"/>
    <ellipse cx="1129" cy="790" rx="7.3" ry="9" fill="#3B2A2A"/>
    <circle cx="1090.6" cy="788.4" r="2.8" fill="#FFFFFF"/>
    <circle cx="1126.6" cy="786.4" r="2.8" fill="#FFFFFF"/>
    <circle cx="1095.5" cy="795" r="1.4" fill="#FFFFFF" opacity="0.8"/>
    <circle cx="1131.5" cy="793" r="1.4" fill="#FFFFFF" opacity="0.8"/>
    <path d="M1082,778 C1088,772 1100,772 1105,778 C1098,776 1090,776 1082,778 Z" fill="#CFC6BC"/>
    <path d="M1118,776 C1123,771 1135,771 1141,777 C1133,775 1125,775 1118,776 Z" fill="#CFC6BC"/>
    <path d="M1097,842 C1094,858 1102,876 1110,882 C1118,876 1126,858 1123,842 C1115,850 1105,850 1097,842 Z" fill="#D2CCC2"/>
    <path d="M1099,844 C1097,858 1103,874 1110,880 C1117,874 1121,858 1121,844" fill="none" stroke="#E4DFD6" stroke-width="1.2" opacity="0.55"/>
    <path d="M1110,848 C1109,860 1109,872 1110,880" fill="none" stroke="#B4AB9E" stroke-width="1.3" opacity="0.5"/>
    <path d="M1090,747 A58 55 0 0 0 1052,796" fill="none" stroke="#FFF4DA" stroke-width="3.2" stroke-linecap="round" opacity="0.38"/>
  </g>

  <!-- MIDDLE PIG (center, front) -->
  <g transform="translate(-67,-66.5) scale(1.07)">
    <ellipse cx="958" cy="1024" rx="90" ry="15" fill="#556848" opacity="0.32" filter="url(#softBlurP)"/>
    <ellipse cx="958" cy="1021" rx="54" ry="8" fill="#4C6040" opacity="0.24" filter="url(#softBlurP)"/>
    <ellipse cx="937" cy="1020" rx="15" ry="10" fill="#6E4B3B"/>
    <ellipse cx="979" cy="1020" rx="15" ry="10" fill="#664435"/>
    <ellipse cx="933" cy="1017" rx="6" ry="2.6" fill="#8A6650" opacity="0.7"/>
    <path d="M924,984 C922,1000 923,1012 930,1020 L950,1020 C952,1010 951,996 950,984 Z" fill="url(#overallBlue)"/>
    <path d="M966,984 C965,998 964,1010 966,1020 L986,1020 C993,1012 994,1000 992,984 Z" fill="url(#overallBlue)"/>
    <path d="M914,912 C906,948 912,984 928,1004 C948,1013 968,1013 988,1004 C1004,984 1010,948 1002,912 C974,928 942,928 914,912 Z" fill="url(#overallBlue)" filter="url(#clothTex)"/>
    <path d="M1002,912 C1010,948 1004,984 988,1004 C978,1009 966,1011 956,1011 C968,974 970,940 968,914 Z" fill="#4E6373" opacity="0.34"/>
    <path d="M916,914 C908,948 913,982 928,1002" fill="none" stroke="#AEC2D0" stroke-width="2.2" stroke-linecap="round" opacity="0.5"/>
    <path d="M934,905 L934,872 C948,865 964,865 978,872 L978,905 C964,912 948,912 934,905 Z" fill="url(#overallBlue)"/>
    <path d="M938,876 C948,871 962,871 972,875" fill="none" stroke="#B8CBD8" stroke-width="3" stroke-linecap="round" opacity="0.6"/>
    <path d="M940,872 C934,858 927,850 919,846" fill="none" stroke="url(#overallBlue)" stroke-width="12" stroke-linecap="round"/>
    <path d="M972,872 C978,858 985,850 993,846" fill="none" stroke="url(#overallBlue)" stroke-width="12" stroke-linecap="round"/>
    <circle cx="940" cy="908" r="4.5" fill="#E8C86A"/><circle cx="940" cy="908" r="4.5" fill="none" stroke="#C9A544" stroke-width="0.8"/>
    <circle cx="972" cy="908" r="4.5" fill="#E8C86A"/><circle cx="972" cy="908" r="4.5" fill="none" stroke="#C9A544" stroke-width="0.8"/>
    <path d="M914,916 C902,938 902,964 908,982" fill="none" stroke="url(#shirtCream)" stroke-width="22" stroke-linecap="round"/>
    <path d="M919,920 C909,940 909,962 913,980" fill="none" stroke="#D8C7AC" stroke-width="6" stroke-linecap="round" opacity="0.4"/>
    <ellipse cx="908" cy="984" rx="14" ry="12" fill="url(#skinMid)"/>
    <path d="M902,980 C901,986 904,990 908,991 M907,978 C907,985 910,989 914,990 M912,979 C913,986 916,989 919,989" fill="none" stroke="url(#skinMid)" stroke-width="5.5" stroke-linecap="round"/>
    <path d="M1004,910 C1024,896 1036,874 1040,852" fill="none" stroke="url(#shirtCream)" stroke-width="23" stroke-linecap="round"/>
    <path d="M1009,915 C1027,901 1038,881 1042,859" fill="none" stroke="#D8C7AC" stroke-width="6" stroke-linecap="round" opacity="0.36"/>
    <ellipse cx="1043" cy="844" rx="14" ry="14" fill="url(#skinMid)"/>
    <path d="M1035,834 C1034,826 1038,824 1040,832 M1042,832 C1042,823 1046,823 1047,832 M1049,834 C1050,826 1054,827 1053,835 M1055,840 C1059,835 1062,839 1057,844" fill="none" stroke="url(#skinMid)" stroke-width="7" stroke-linecap="round"/>
    <ellipse cx="955" cy="890" rx="61" ry="58" fill="url(#skinMid)"/>
    <path d="M912,860 C898,838 912,822 927,836 C935,845 934,864 925,874 C915,879 913,872 912,860 Z" fill="url(#skinMid)"/>
    <path d="M998,860 C1012,838 998,822 983,836 C975,845 976,864 985,874 C995,879 997,872 998,860 Z" fill="url(#skinMid)"/>
    <path d="M917,857 C909,845 919,837 927,845 C931,851 930,862 925,867 Z" fill="url(#earInner)"/>
    <path d="M993,857 C1001,845 991,837 983,845 C979,851 980,862 985,867 Z" fill="url(#earInner)"/>
    <ellipse cx="955" cy="890" rx="61" ry="58" fill="none" stroke="#F6D9C0" stroke-width="1.4" opacity="0.4"/>
    <ellipse cx="938" cy="872" rx="44" ry="40" fill="url(#headHi)"/>
    <ellipse cx="966" cy="908" rx="30" ry="22" fill="url(#snoutG)"/>
    <ellipse cx="960" cy="900" rx="15" ry="6" fill="#FBDDD6" opacity="0.6"/>
    <ellipse cx="957" cy="909" rx="4" ry="7" fill="#B26E6A"/>
    <ellipse cx="975" cy="909" rx="4" ry="7" fill="#B26E6A"/>
    <ellipse cx="922" cy="906" rx="14" ry="10" fill="url(#blushG)"/>
    <ellipse cx="992" cy="904" rx="13" ry="9" fill="url(#blushG)"/>
    <ellipse cx="930" cy="896" rx="8" ry="5" fill="url(#cheekHi)"/>
    <ellipse cx="939" cy="879" rx="8" ry="10" fill="#3B2A2A"/>
    <ellipse cx="977" cy="877" rx="8" ry="10" fill="#3B2A2A"/>
    <circle cx="936" cy="875" r="3.1" fill="#FFFFFF"/>
    <circle cx="974" cy="873" r="3.1" fill="#FFFFFF"/>
    <circle cx="942" cy="883" r="1.5" fill="#FFFFFF" opacity="0.8"/>
    <circle cx="980" cy="881" r="1.5" fill="#FFFFFF" opacity="0.8"/>
    <path d="M929,864 C935,859 946,860 950,865" fill="none" stroke="#B07E63" stroke-width="2.6" stroke-linecap="round"/>
    <path d="M968,862 C973,858 983,859 988,863" fill="none" stroke="#B07E63" stroke-width="2.6" stroke-linecap="round"/>
    <path d="M947,925 C956,938 976,938 985,924 C977,931 955,931 947,925 Z" fill="#9A4A42"/>
    <path d="M951,926 C959,930 973,930 981,926 L979,929 C972,932 960,932 953,929 Z" fill="#F2E9D6"/>
    <ellipse cx="966" cy="934" rx="6" ry="3" fill="#E89089"/>
    <path d="M937,835 A61 58 0 0 0 895,884" fill="none" stroke="#FFF4DA" stroke-width="3.2" stroke-linecap="round" opacity="0.38"/>
  </g>

  <!-- BIRDS -->
  <g stroke="#6E7F86" stroke-width="2" fill="none" opacity="0.55" stroke-linecap="round">
    <path d="M1508,300 q7,-7 14,0 q7,-7 14,0"/>
    <path d="M1556,318 q6,-6 12,0 q6,-6 12,0"/>
    <path d="M1584,296 q5,-5 10,0 q5,-5 10,0"/>
  </g>

  <!-- BOTTOM-LEFT FOREGROUND CORNER -->
  <path d="M0,1008 C140,976 300,982 430,1016 C330,1046 170,1068 0,1076 Z M0,1076 L430,1016 C460,1026 480,1040 490,1080 L0,1080 Z" fill="#B4C48D" opacity="0.85"/>
  <g fill="none" stroke="#8CA96B" stroke-width="3.5" stroke-linecap="round">
    <path d="M70,1080 Q62,1022 78,984"/>
    <path d="M110,1080 Q118,1020 102,978"/>
    <path d="M156,1080 Q148,1034 164,1000"/>
    <path d="M202,1080 Q210,1040 196,1008"/>
    <path d="M42,1080 Q38,1044 50,1018"/>
  </g>
  <g fill="#B34F3F">
    <circle cx="79" cy="979" r="6"/><circle cx="101" cy="972" r="6.5"/><circle cx="165" cy="994" r="5.5"/>
  </g>
  <g fill="#C9B26A">
    <circle cx="197" cy="1003" r="4.5"/><circle cx="51" cy="1013" r="4"/>
  </g>
  <g fill="#F6EFD8" opacity="0.65">
    <circle cx="300" cy="1036" r="4"/><circle cx="360" cy="1014" r="3.5"/><circle cx="430" cy="1050" r="4"/>
    <circle cx="260" cy="1066" r="3.5"/><circle cx="510" cy="1030" r="3"/>
  </g>

  <!-- SUN BEAMS (clipped above horizon) -->
  <g clip-path="url(#beamClip)">
    <polygon points="300,0 560,0 1220,1080 850,1080" fill="url(#beam)"/>
    <polygon points="630,0 770,0 1580,1080 1340,1080" fill="url(#beam)" opacity="0.75"/>
  </g>

  <!-- GRAIN -->
  <rect width="1920" height="1080" filter="url(#grain)" opacity="0.14" style="mix-blend-mode:soft-light"/>
</svg>
