<svg xmlns="http://www.w3.org/2000/svg" viewBox="0 0 1920 1080">
  <defs>
    <linearGradient id="sky" x1="0" y1="0" x2="0" y2="1">
      <stop offset="0" stop-color="#AECDE0"/>
      <stop offset="0.36" stop-color="#CFE0DF"/>
      <stop offset="0.66" stop-color="#EFEADA"/>
      <stop offset="1" stop-color="#F8EFDC"/>
    </linearGradient>
    <radialGradient id="sun" cx="0.5" cy="0.5" r="0.5">
      <stop offset="0" stop-color="#FFF8E2" stop-opacity="0.95"/>
      <stop offset="0.55" stop-color="#FFF3D6" stop-opacity="0.45"/>
      <stop offset="1" stop-color="#FFF3D6" stop-opacity="0"/>
    </radialGradient>
    <radialGradient id="houseGlow" cx="0.5" cy="0.5" r="0.5">
      <stop offset="0" stop-color="#FFF4D7" stop-opacity="0.8"/>
      <stop offset="1" stop-color="#FFF4D7" stop-opacity="0"/>
    </radialGradient>
    <radialGradient id="lightPool" cx="0.5" cy="0.5" r="0.5">
      <stop offset="0" stop-color="#FBF3D2" stop-opacity="0.5"/>
      <stop offset="1" stop-color="#FBF3D2" stop-opacity="0"/>
    </radialGradient>
    <linearGradient id="wall" x1="0" y1="0" x2="1" y2="0">
      <stop offset="0" stop-color="#D14A3A"/>
      <stop offset="0.55" stop-color="#C43A2E"/>
      <stop offset="1" stop-color="#A3291F"/>
    </linearGradient>
    <linearGradient id="meadow" x1="0" y1="0" x2="0" y2="1">
      <stop offset="0" stop-color="#D2DCA6"/>
      <stop offset="1" stop-color="#EFE9BE"/>
    </linearGradient>
    <linearGradient id="beam" x1="0" y1="0" x2="0.4" y2="1">
      <stop offset="0" stop-color="#FFFFFF" stop-opacity="0.16"/>
      <stop offset="0.5" stop-color="#FFFFFF" stop-opacity="0.07"/>
      <stop offset="0.78" stop-color="#FFFFFF" stop-opacity="0"/>
      <stop offset="1" stop-color="#FFFFFF" stop-opacity="0"/>
    </linearGradient>
    <linearGradient id="haze" x1="0" y1="0" x2="0" y2="1">
      <stop offset="0" stop-color="#F6EEDC" stop-opacity="0"/>
      <stop offset="1" stop-color="#F6EEDC" stop-opacity="0.35"/>
    </linearGradient>
    <clipPath id="beamClip"><rect x="0" y="0" width="1920" height="790"/></clipPath>
    <clipPath id="mottleClip">
      <rect x="0" y="700" width="1490" height="380"/>
      <rect x="1490" y="1008" width="430" height="72"/>
    </clipPath>
    <filter id="grain" x="0" y="0" width="100%" height="100%">
      <feTurbulence type="fractalNoise" baseFrequency="0.9" numOctaves="2" stitchTiles="stitch" result="n"/>
      <feColorMatrix in="n" type="saturate" values="0"/>
      <feComponentTransfer><feFuncA type="linear" slope="0.55" intercept="0"/></feComponentTransfer>
    </filter>
    <filter id="mottle" x="-2%" y="-2%" width="104%" height="104%">
      <feTurbulence type="fractalNoise" baseFrequency="0.005 0.013" numOctaves="2" seed="9" result="n"/>
      <feColorMatrix in="n" type="matrix" values="0 0 0 0 0.36  0 0 0 0 0.47  0 0 0 0 0.24  0.7 0.7 0.7 0 -0.75"/>
      <feComposite operator="in" in2="SourceGraphic"/>
    </filter>
    <!-- ===== CAPED BROTHERS (back view) DEFS ===== -->
    <radialGradient id="pigHead" cx="0.38" cy="0.30" r="0.86">
      <stop offset="0" stop-color="#B98F76"/>
      <stop offset="0.55" stop-color="#946C57"/>
      <stop offset="1" stop-color="#5C3A2D"/>
    </radialGradient>
    <radialGradient id="pigEar" cx="0.5" cy="0.7" r="0.8">
      <stop offset="0" stop-color="#A97D67"/>
      <stop offset="1" stop-color="#6A4034"/>
    </radialGradient>
    <linearGradient id="pigLeg" x1="0" y1="0" x2="0" y2="1">
      <stop offset="0" stop-color="#6A4638"/>
      <stop offset="1" stop-color="#3A271F"/>
    </linearGradient>
    <linearGradient id="capeOrange" x1="0.35" y1="0" x2="0.5" y2="1">
      <stop offset="0" stop-color="#E2A566"/>
      <stop offset="0.5" stop-color="#BE6E38"/>
      <stop offset="1" stop-color="#864321"/>
    </linearGradient>
    <linearGradient id="capeOrangeTop" x1="0.35" y1="0" x2="0.5" y2="1">
      <stop offset="0" stop-color="#EEB575"/>
      <stop offset="1" stop-color="#AC5E2E"/>
    </linearGradient>
    <linearGradient id="capeGreen" x1="0.35" y1="0" x2="0.5" y2="1">
      <stop offset="0" stop-color="#82A263"/>
      <stop offset="0.5" stop-color="#4C6C39"/>
      <stop offset="1" stop-color="#233F1D"/>
    </linearGradient>
    <linearGradient id="capeGreenTop" x1="0.35" y1="0" x2="0.5" y2="1">
      <stop offset="0" stop-color="#92B072"/>
      <stop offset="1" stop-color="#466730"/>
    </linearGradient>
    <linearGradient id="capeGreen2" x1="0.35" y1="0" x2="0.5" y2="1">
      <stop offset="0" stop-color="#789759"/>
      <stop offset="0.5" stop-color="#456234"/>
      <stop offset="1" stop-color="#1F3A1A"/>
    </linearGradient>
    <linearGradient id="capeGreen2Top" x1="0.35" y1="0" x2="0.5" y2="1">
      <stop offset="0" stop-color="#88A668"/>
      <stop offset="1" stop-color="#40602C"/>
    </linearGradient>
    <linearGradient id="staffWood" x1="0" y1="0" x2="1" y2="0">
      <stop offset="0" stop-color="#C0915A"/>
      <stop offset="0.5" stop-color="#8D5E33"/>
      <stop offset="1" stop-color="#5E3C1E"/>
    </linearGradient>
    <filter id="softShadow" x="-50%" y="-400%" width="200%" height="900%">
      <feGaussianBlur stdDeviation="13"/>
    </filter>
    <filter id="contact" x="-60%" y="-260%" width="220%" height="620%">
      <feGaussianBlur stdDeviation="3.5"/>
    </filter>
    <filter id="cloth" x="-6%" y="-6%" width="112%" height="112%">
      <feTurbulence type="fractalNoise" baseFrequency="0.05 0.09" numOctaves="2" seed="7" result="n"/>
      <feColorMatrix in="n" type="matrix" values="0 0 0 0 0  0 0 0 0 0  0 0 0 0 0  0.7 0.7 0.7 0 -0.55"/>
      <feComposite operator="in" in2="SourceGraphic"/>
    </filter>
    <clipPath id="clipRobe"><path d="M-48,-150 C-60,-122 -60,-78 -54,-42 C-50,-32 -40,-32 -30,-36 C-18,-42 -8,-42 0,-36 C8,-42 18,-42 30,-36 C40,-32 50,-32 54,-42 C60,-78 60,-122 48,-150 C28,-165 -28,-165 -48,-150 Z"/></clipPath>
    <g id="plegs">
      <path d="M-30,-46 C-36,-24 -35,-6 -29,6 C-24,12 -15,12 -13,2 C-11,-16 -14,-34 -20,-48 Z" fill="url(#pigLeg)"/>
      <path d="M30,-46 C36,-24 35,-6 29,6 C24,12 15,12 13,2 C11,-16 14,-34 20,-48 Z" fill="url(#pigLeg)"/>
      <ellipse cx="-21" cy="8" rx="13" ry="7" fill="#2E1E18"/>
      <ellipse cx="21" cy="8" rx="13" ry="7" fill="#2E1E18"/>
      <path d="M-31,2 C-31,-10 -27,-24 -21,-34" fill="none" stroke="#8A6350" stroke-width="1.6" opacity="0.4" stroke-linecap="round"/>
      <path d="M31,2 C31,-10 27,-24 21,-34" fill="none" stroke="#8A6350" stroke-width="1.4" opacity="0.3" stroke-linecap="round"/>
    </g>
    <g id="phead">
      <!-- pig ears: broad outward-leaning flaps, rounded tips, soft dark inner -->
      <path d="M-12,-220 C-28,-230 -44,-238 -53,-242 C-58,-244 -58,-239 -55,-234 C-52,-224 -49,-213 -46,-204 C-35,-209 -24,-214 -12,-220 Z" fill="url(#pigEar)"/>
      <path d="M-19,-217 C-30,-227 -40,-234 -47,-238 C-49,-234 -48,-227 -46,-221 C-43,-213 -40,-208 -37,-202 C-31,-206 -25,-211 -19,-217 Z" fill="#472C22" opacity="0.6"/>
      <path d="M12,-220 C28,-230 44,-238 53,-242 C58,-244 58,-239 55,-234 C52,-224 49,-213 46,-204 C35,-209 24,-214 12,-220 Z" fill="url(#pigEar)"/>
      <path d="M19,-217 C30,-227 40,-234 47,-238 C49,-234 48,-227 46,-221 C43,-213 40,-208 37,-202 C31,-206 25,-211 19,-217 Z" fill="#472C22" opacity="0.6"/>
      <ellipse cx="0" cy="-190" rx="49" ry="46" fill="url(#pigHead)"/>
      <path d="M-30,-150 C-14,-158 14,-158 30,-150" fill="none" stroke="#472C22" stroke-width="5" opacity="0.16" stroke-linecap="round"/>
      <g stroke="#7A5140" stroke-width="0.9" opacity="0.16" fill="none" stroke-linecap="round">
        <path d="M-4,-222 C-5,-212 -6,-202 -8,-194"/>
        <path d="M-12,-220 C-14,-211 -16,-202 -18,-194"/>
        <path d="M-20,-217 C-23,-209 -25,-201 -27,-193"/>
        <path d="M4,-222 C5,-212 6,-202 8,-194"/>
        <path d="M12,-220 C14,-211 16,-202 18,-194"/>
        <path d="M20,-217 C23,-209 25,-201 27,-193"/>
      </g>
      <ellipse cx="-15" cy="-204" rx="15" ry="11" fill="#D6B79E" opacity="0.24"/>
      <path d="M-43,-170 C-49,-188 -47,-206 -39,-220" fill="none" stroke="#FBEBCB" stroke-width="2.2" opacity="0.58" stroke-linecap="round"/>
      <path d="M-12,-220 C-28,-230 -44,-238 -53,-242" fill="none" stroke="#FBEBCB" stroke-width="2.2" opacity="0.62" stroke-linecap="round"/>
    </g>
    <g id="emb" fill="none" stroke="currentColor" stroke-width="2" stroke-linecap="round">
      <path d="M0,-46 C0,-26 0,-4 0,28"/>
      <path d="M0,-42 C-15,-48 -28,-40 -28,-28 C-28,-19 -19,-17 -15,-24 C-12,-30 -18,-33 -21,-28"/>
      <path d="M0,-42 C15,-48 28,-40 28,-28 C28,-19 19,-17 15,-24 C12,-30 18,-33 21,-28"/>
      <path d="M0,-20 C-17,-26 -32,-18 -34,-4 C-35,5 -27,8 -23,0 C-20,-6 -26,-10 -29,-4"/>
      <path d="M0,-20 C17,-26 32,-18 34,-4 C35,5 27,8 23,0 C20,-6 26,-10 29,-4"/>
      <path d="M0,2 C-13,-2 -24,6 -26,17 C-27,25 -19,27 -16,19 C-14,14 -20,11 -23,16"/>
      <path d="M0,2 C13,-2 24,6 26,17 C27,25 19,27 16,19 C14,14 20,11 23,16"/>
      <path d="M0,20 C-9,18 -16,24 -18,31 C-19,37 -14,39 -11,33"/>
      <path d="M0,20 C9,18 16,24 18,31 C19,37 14,39 11,33"/>
      <circle r="1.9" cx="0" cy="-48" fill="currentColor" stroke="none"/>
      <circle r="1.7" cx="0" cy="30" fill="currentColor" stroke="none"/>
      <circle r="1.5" cx="-32" cy="-2" fill="currentColor" stroke="none"/>
      <circle r="1.5" cx="32" cy="-2" fill="currentColor" stroke="none"/>
      <circle r="1.4" cx="-28" cy="-27" fill="currentColor" stroke="none"/>
      <circle r="1.4" cx="28" cy="-27" fill="currentColor" stroke="none"/>
    </g>
    <g id="yoke" fill="none" stroke="currentColor" stroke-width="1.8" stroke-linecap="round">
      <path d="M-46,-140 C-48,-120 -32,-108 -14,-104 C-6,-102 0,-98 0,-94 C0,-98 6,-102 14,-104 C32,-108 48,-120 46,-140"/>
      <path d="M-34,-132 C-36,-120 -26,-114 -20,-116 C-16,-117 -17,-123 -21,-122"/>
      <path d="M34,-132 C36,-120 26,-114 20,-116 C16,-117 17,-123 21,-122"/>
      <circle cx="0" cy="-95" r="2" fill="currentColor" stroke="none"/>
    </g>
    <g id="treeCluster">
      <path d="M-6,0 L-2,-34 L2,-34 L6,0 Z" fill="#6B5140"/>
      <path d="M-46,-32 Q-54,-44 -44,-52 Q-46,-64 -34,-68 Q-30,-78 -18,-76 Q-8,-76 -6,-66 Q0,-56 -4,-46 Q0,-34 -10,-28 Q-22,-20 -32,-26 Q-44,-24 -46,-32 Z" fill="#749868"/>
      <path d="M-20,-28 Q-28,-40 -18,-50 Q-22,-66 -8,-72 Q-8,-88 10,-88 Q28,-90 32,-76 Q46,-76 48,-62 Q58,-54 52,-42 Q56,-28 42,-24 Q32,-14 18,-18 Q4,-10 -6,-18 Q-18,-16 -20,-28 Z" fill="#7EA06F"/>
      <path d="M30,-58 Q38,-64 46,-58 Q54,-52 50,-42 Q52,-30 40,-26 Q30,-22 26,-32 Q22,-46 30,-58 Z" fill="#6F9264" opacity="0.85"/>
      <path d="M-10,-62 Q-14,-72 -2,-76 Q0,-86 12,-84 Q22,-84 22,-74 Q26,-66 16,-62 Q6,-56 -2,-60 Q-8,-56 -10,-62 Z" fill="#93B67F"/>
      <path d="M-44,-52 Q-46,-62 -36,-64 Q-34,-72 -24,-70 Q-16,-68 -18,-60 Q-14,-54 -24,-52 Q-34,-46 -44,-52 Z" fill="#93B67F" opacity="0.9"/>
    </g>
  </defs>

  <!-- SKY -->
  <rect width="1920" height="1080" fill="url(#sky)"/>
  <circle cx="400" cy="235" r="420" fill="url(#sun)"/>
  <circle cx="400" cy="235" r="56" fill="#FFF9E8" opacity="0.95"/>
  <circle cx="400" cy="235" r="90" fill="#FFF7DF" opacity="0.35"/>

  <!-- CLOUDS -->
  <g fill="#FFFFFF">
    <path d="M226,306 Q220,280 248,272 Q250,246 282,242 Q290,214 330,212 Q344,186 392,190 Q438,178 460,206 Q498,196 512,226 Q550,224 558,252 Q590,256 592,280 Q608,286 602,306 Z" opacity="0.92"/>
    <path d="M1452,266 Q1446,242 1472,234 Q1476,208 1510,206 Q1520,180 1562,180 Q1580,158 1622,164 Q1664,156 1682,182 Q1718,178 1730,206 Q1764,208 1770,234 Q1794,240 1788,266 Z" opacity="0.9"/>
    <path d="M842,196 Q838,180 856,174 Q860,158 884,156 Q896,140 924,144 Q952,138 964,156 Q988,154 994,174 Q1012,178 1006,196 Z" opacity="0.5"/>
    <path d="M108,438 Q104,424 120,419 Q124,406 144,405 Q154,392 176,396 Q198,391 208,406 Q226,404 231,419 Q245,423 240,438 Z" opacity="0.55"/>
    <path d="M1706,400 Q1702,388 1716,383 Q1719,372 1736,371 Q1744,360 1763,363 Q1781,359 1789,372 Q1804,371 1808,383 Q1820,387 1816,400 Z" opacity="0.5"/>
  </g>
  <g fill="#FFFFFF">
    <path d="M300,238 Q296,214 322,206 Q330,184 360,186 Q390,176 408,196 Q430,194 434,212 Q450,220 442,234 Q424,242 402,238 Q362,246 332,240 Q310,244 300,238 Z"/>
    <path d="M1516,214 Q1512,192 1538,186 Q1546,166 1576,168 Q1604,158 1620,176 Q1642,174 1646,192 Q1660,200 1652,212 Q1634,220 1612,214 Q1574,222 1546,216 Q1524,220 1516,214 Z"/>
  </g>
  <g fill="#D9E2E0">
    <path d="M238,306 Q246,286 284,288 Q296,268 340,272 Q376,258 424,268 Q472,258 506,272 Q544,268 562,286 Q590,288 602,306 Z" opacity="0.7"/>
    <path d="M1462,266 Q1470,248 1504,250 Q1518,234 1556,238 Q1592,226 1634,236 Q1678,228 1706,240 Q1742,238 1760,250 Q1782,252 1788,266 Z" opacity="0.7"/>
    <path d="M850,196 Q866,186 900,188 Q950,184 980,190 Q998,190 1006,196 Z" opacity="0.45"/>
  </g>

  <!-- FAR HILLS: warm sage-green ridges -->
  <path d="M0,672 C160,644 300,638 460,654 C640,672 780,632 960,644 C1150,656 1290,630 1470,648 C1640,662 1790,650 1920,660 L1920,780 L0,780 Z" fill="#D8E4D9"/>
  <path d="M0,708 C190,676 360,670 540,688 C740,706 900,668 1090,682 C1290,696 1480,670 1660,690 C1770,700 1860,696 1920,702 L1920,800 L0,800 Z" fill="#C6D8C8"/>
  <path d="M0,740 C200,712 380,718 560,726 C760,734 920,706 1120,718 C1320,730 1520,710 1700,726 L1920,738 L1920,820 L0,820 Z" fill="#B4CBBB"/>
  <!-- haze lift following ridge silhouette -->
  <path d="M0,740 C200,712 380,718 560,726 C760,734 920,706 1120,718 C1320,730 1520,710 1700,726 L1920,738 L1920,826 L0,826 Z" fill="url(#haze)"/>

  <!-- MID SAGE HILLS with hedgerows -->
  <path d="M0,772 C240,730 440,752 660,756 C920,760 1100,726 1330,748 C1540,766 1720,742 1920,762 L1920,880 L0,880 Z" fill="#B7CDA0"/>
  <g fill="#93B285" opacity="0.9">
    <circle cx="196" cy="764" r="9"/><circle cx="212" cy="766" r="7"/>
    <circle cx="448" cy="758" r="8"/><circle cx="462" cy="760" r="6"/>
    <circle cx="668" cy="760" r="7"/>
    <circle cx="1560" cy="766" r="8"/><circle cx="1578" cy="768" r="6"/>
  </g>

  <!-- PATCHWORK FIELDS (left slope, contour-following ribbons tapering into the plateau) -->
  <g>
    <path d="M0,796 C240,768 480,766 720,782 C480,792 240,798 0,828 Z" fill="#C6D49C" opacity="0.9"/>
    <path d="M0,828 C240,798 480,794 760,812 C520,824 240,836 0,872 Z" fill="#D8DBA6" opacity="0.85"/>
    <path d="M0,872 C240,836 480,830 800,850 C560,864 240,880 0,922 Z" fill="#C0CF96" opacity="0.8"/>
    <g fill="none" stroke="#A6BF88" stroke-width="2.5" opacity="0.5">
      <path d="M0,828 C240,798 480,794 760,812"/>
      <path d="M0,872 C240,836 480,830 800,850"/>
    </g>
  </g>

  <!-- HOUSE PLATEAU -->
  <path d="M580,840 C880,776 1140,756 1330,756 C1540,756 1720,788 1920,828 L1920,940 L580,940 Z" fill="#C8D6A6"/>

  <!-- HOUSE ENSEMBLE (shifted right for CTA clearance) -->
  <g transform="translate(60,0)">
    <!-- HOUSE GLOW -->
    <ellipse cx="1290" cy="668" rx="420" ry="220" fill="url(#houseGlow)"/>

    <!-- TREES BEHIND HOUSE (right) -->
    <use href="#treeCluster" transform="translate(1452,764)"/>
    <use href="#treeCluster" transform="translate(1520,776) scale(0.7)"/>
    <ellipse cx="1490" cy="770" rx="90" ry="9" fill="#7F9A6B" opacity="0.3"/>

    <!-- HOUSE -->
    <g>
      <ellipse cx="1300" cy="764" rx="170" ry="13" fill="#7F9A6B" opacity="0.35"/>
      <!-- chimneys at ridge ends -->
      <rect x="1236" y="524" width="16" height="52" fill="#A3291F"/>
      <rect x="1332" y="524" width="16" height="52" fill="#A3291F"/>
      <rect x="1233" y="518" width="22" height="7" fill="#F2E7D2"/>
      <rect x="1329" y="518" width="22" height="7" fill="#F2E7D2"/>
      <!-- roof -->
      <polygon points="1184,632 1228,566 1354,566 1398,632" fill="#7C2B22"/>
      <polygon points="1228,566 1354,566 1346,576 1236,576" fill="#96352A"/>
      <!-- side wing (right) -->
      <polygon points="1392,700 1420,676 1448,700" fill="#8A3127"/>
      <rect x="1396" y="700" width="44" height="60" fill="#AC3226"/>
      <rect x="1408" y="714" width="18" height="26" fill="#F7EDD4"/>
      <rect x="1408" y="714" width="18" height="4" fill="#D9C7A6"/>
      <!-- cornice + wall -->
      <rect x="1192" y="632" width="182" height="8" fill="#F2E7D2"/>
      <rect x="1196" y="640" width="174" height="120" fill="url(#wall)"/>
      <rect x="1196" y="640" width="174" height="7" fill="#8E2A20" opacity="0.3"/>
      <g stroke="#8E2A20" stroke-width="1" opacity="0.15">
        <line x1="1196" y1="654" x2="1370" y2="654"/><line x1="1196" y1="662" x2="1370" y2="662"/>
        <line x1="1196" y1="670" x2="1370" y2="670"/><line x1="1196" y1="678" x2="1370" y2="678"/>
        <line x1="1196" y1="686" x2="1370" y2="686"/><line x1="1196" y1="694" x2="1370" y2="694"/>
        <line x1="1196" y1="702" x2="1370" y2="702"/><line x1="1196" y1="710" x2="1370" y2="710"/>
        <line x1="1196" y1="718" x2="1370" y2="718"/><line x1="1196" y1="726" x2="1370" y2="726"/>
        <line x1="1196" y1="734" x2="1370" y2="734"/><line x1="1196" y1="742" x2="1370" y2="742"/>
        <line x1="1196" y1="750" x2="1370" y2="750"/>
      </g>
      <!-- windows -->
      <g fill="#F7EDD4">
        <rect x="1210" y="652" width="20" height="30"/><rect x="1244" y="652" width="20" height="30"/>
        <rect x="1302" y="652" width="20" height="30"/><rect x="1336" y="652" width="20" height="30"/>
        <rect x="1210" y="700" width="20" height="34"/><rect x="1244" y="700" width="20" height="34"/>
        <rect x="1302" y="700" width="20" height="34"/><rect x="1336" y="700" width="20" height="34"/>
      </g>
      <g fill="#D9C7A6">
        <rect x="1210" y="652" width="20" height="4"/><rect x="1244" y="652" width="20" height="4"/>
        <rect x="1302" y="652" width="20" height="4"/><rect x="1336" y="652" width="20" height="4"/>
        <rect x="1210" y="700" width="20" height="4"/><rect x="1244" y="700" width="20" height="4"/>
        <rect x="1302" y="700" width="20" height="4"/><rect x="1336" y="700" width="20" height="4"/>
      </g>
      <g fill="#F2E7D2">
        <rect x="1208" y="682" width="24" height="3"/><rect x="1242" y="682" width="24" height="3"/>
        <rect x="1300" y="682" width="24" height="3"/><rect x="1334" y="682" width="24" height="3"/>
        <rect x="1208" y="734" width="24" height="3"/><rect x="1242" y="734" width="24" height="3"/>
        <rect x="1300" y="734" width="24" height="3"/><rect x="1334" y="734" width="24" height="3"/>
      </g>
      <!-- door with pediment -->
      <polygon points="1262,712 1283,694 1304,712" fill="#F2E7D2"/>
      <rect x="1266" y="712" width="34" height="48" fill="#F2E7D2"/>
      <path d="M1272,760 L1272,724 Q1283,712 1294,724 L1294,760 Z" fill="#634036"/>
      <rect x="1268" y="760" width="30" height="5" fill="#E6D8BC"/>
      <!-- front hedges -->
      <path d="M1198,760 Q1210,748 1226,760 Q1240,750 1256,760 L1256,766 L1198,766 Z" fill="#7FA173"/>
      <path d="M1310,760 Q1324,750 1340,760 Q1354,750 1368,760 L1368,766 L1310,766 Z" fill="#7FA173"/>
      <!-- sunlit rim (light from left) -->
      <rect x="1196" y="640" width="3" height="120" fill="#F0A88E" opacity="0.8"/>
      <polygon points="1184,632 1228,566 1236,566 1194,632" fill="#B0503F" opacity="0.9"/>
      <!-- gentle chimney smoke -->
      <path d="M1244,512 C1238,498 1252,490 1246,476 C1240,464 1254,456 1250,442" fill="none" stroke="#FFFFFF" stroke-width="5" stroke-linecap="round" opacity="0.4"/>
    </g>

    <!-- CYPRESS FLANKS (asymmetric pair, left of house) -->
    <path d="M1166,762 C1156,730 1156,684 1166,658 C1176,684 1176,730 1166,762 Z" fill="#66875F"/>
    <path d="M1140,764 C1133,740 1133,706 1140,688 C1147,706 1147,740 1140,764 Z" fill="#749868"/>
    <ellipse cx="1156" cy="768" rx="38" ry="5" fill="#7F9A6B" opacity="0.3"/>
  </g>

  <!-- FOREGROUND MEADOW -->
  <path d="M0,880 C280,818 520,806 780,828 C1040,850 1300,848 1560,882 C1700,900 1830,914 1920,922 L1920,1080 L0,1080 Z" fill="url(#meadow)"/>
  <ellipse cx="620" cy="960" rx="480" ry="150" fill="url(#lightPool)"/>
  <!-- low-frequency grass mottle (kept clear of bottom-right animation zone) -->
  <path d="M0,880 C280,818 520,806 780,828 C1040,850 1300,848 1560,882 C1700,900 1830,914 1920,922 L1920,1080 L0,1080 Z" fill="#8FA668" filter="url(#mottle)" clip-path="url(#mottleClip)" opacity="0.16"/>
  <!-- contour curves -->
  <g stroke="#AFC489" stroke-width="3" fill="none" opacity="0.5">
    <path d="M30,940 C260,892 470,880 680,894"/>
    <path d="M10,984 C240,934 450,922 660,936"/>
    <path d="M60,1034 C280,986 480,972 660,986"/>
  </g>
  <g stroke="#C4D398" stroke-width="2.5" fill="none" opacity="0.45">
    <path d="M1120,884 C1240,892 1350,902 1450,914"/>
    <path d="M1660,1000 C1760,1016 1850,1032 1920,1044"/>
  </g>

  <!-- LEFT MID-GROUND TREE CLUSTER (poster balance) -->
  <g>
    <path d="M320,936 C420,930 520,942 600,958 C500,966 400,964 320,952 Z" fill="#9CB37D" opacity="0.5"/>
    <use href="#treeCluster" transform="translate(316,934) scale(1.15)"/>
    <use href="#treeCluster" transform="translate(414,944) scale(0.78)"/>
  </g>

  <!-- SPARSE GRASS TUFTS -->
  <g fill="none" stroke="#A8BC80" stroke-width="2.5" stroke-linecap="round" opacity="0.6">
    <path d="M238,1010 q-3,-12 2,-20 M246,1010 q3,-10 -1,-18"/>
    <path d="M412,964 q-3,-11 2,-18 M420,964 q3,-9 -1,-16"/>
    <path d="M560,1042 q-3,-12 2,-20 M568,1042 q3,-10 -1,-18"/>
    <path d="M888,986 q-3,-10 2,-17 M896,986 q3,-9 -1,-15"/>
    <path d="M1078,1006 q-3,-11 2,-18 M1086,1006 q3,-9 -1,-16"/>
    <path d="M1420,1010 q-3,-10 2,-17 M1428,1010 q3,-9 -1,-15"/>
    <path d="M736,1064 q-3,-12 2,-20 M744,1064 q3,-10 -1,-18"/>
  </g>

  <!-- PATH -->
  <path d="M480,1080 C620,976 770,928 920,894 C1070,860 1246,834 1328,770 L1358,770 C1276,846 1120,892 960,924 C820,958 700,1004 660,1080 Z" fill="#EDE0BA"/>
  <path d="M540,1080 C660,988 790,940 935,904 C1075,868 1236,840 1316,782 C1240,852 1090,898 950,930 C830,962 720,1010 664,1080 Z" fill="#F6ECCE" opacity="0.75"/>
  <!-- grounding stroke along lower path edge -->
  <path d="M480,1080 C620,976 770,928 920,894 C1070,860 1246,834 1328,770" fill="none" stroke="#C9B88E" stroke-width="3" opacity="0.4"/>
  <path d="M1358,770 C1276,846 1120,892 960,924 C820,958 700,1004 660,1080" fill="none" stroke="#C9B88E" stroke-width="2.5" opacity="0.25"/>

  <!-- PIGS: caped brothers walking home (back view) -->
  <!-- long soft ground shadows (sun upper-left -> cast lower-right, multi-layer) -->
  <g filter="url(#softShadow)" fill="#484A32">
    <ellipse cx="1200" cy="1000" rx="215" ry="13" opacity="0.14" transform="rotate(-6 1200 1000)"/>
    <ellipse cx="980" cy="1016" rx="250" ry="16" opacity="0.16" transform="rotate(-6 980 1016)"/>
    <ellipse cx="1110" cy="1032" rx="285" ry="18" opacity="0.17" transform="rotate(-6 1110 1032)"/>
  </g>
  <g filter="url(#softShadow)" fill="#43452F">
    <ellipse cx="1150" cy="1002" rx="152" ry="14" opacity="0.24" transform="rotate(-7 1150 1002)"/>
    <ellipse cx="912" cy="1017" rx="178" ry="17" opacity="0.30" transform="rotate(-7 912 1017)"/>
    <ellipse cx="1042" cy="1033" rx="208" ry="19" opacity="0.32" transform="rotate(-7 1042 1033)"/>
  </g>
  <g filter="url(#contact)" fill="#33341F">
    <ellipse cx="1082" cy="999" rx="42" ry="7" opacity="0.32"/>
    <ellipse cx="838" cy="1012" rx="48" ry="8" opacity="0.34"/>
    <ellipse cx="958" cy="1027" rx="54" ry="9" opacity="0.36"/>
  </g>

  <!-- RIGHT brother: green, wooden crook staff (set back) -->
  <g transform="translate(1082,986) scale(0.82)">
    <path d="M64,-120 L70,16" fill="none" stroke="url(#staffWood)" stroke-width="7" stroke-linecap="round"/>
    <path d="M64,-120 C62,-143 73,-155 83,-147 C89,-142 86,-131 78,-134" fill="none" stroke="url(#staffWood)" stroke-width="7" stroke-linecap="round"/>
    <path d="M61,-100 L67,10" fill="none" stroke="#E8C88C" stroke-width="1.6" opacity="0.5" stroke-linecap="round"/>
    <path d="M-46,-116 C-58,-98 -62,-82 -60,-70 C-52,-76 -48,-90 -42,-104 Z" fill="url(#capeGreen2)"/>
    <use href="#plegs"/>
    <path d="M-48,-150 C-60,-122 -60,-78 -54,-42 C-50,-32 -40,-32 -30,-36 C-18,-42 -8,-42 0,-36 C8,-42 18,-42 30,-36 C40,-32 50,-32 54,-42 C60,-78 60,-122 48,-150 C28,-165 -28,-165 -48,-150 Z" fill="url(#capeGreen2)"/>
    <path d="M0,-148 C2,-100 2,-62 0,-34" fill="none" stroke="#1E381A" stroke-width="7" opacity="0.18" stroke-linecap="round"/>
    <path d="M38,-148 C56,-108 56,-64 48,-36" fill="none" stroke="#1E381A" stroke-width="15" opacity="0.16" stroke-linecap="round"/>
    <use href="#emb" transform="translate(1.5,-60.5)" color="#20300F" opacity="0.5"/>
    <use href="#emb" transform="translate(0,-62)" color="#E9D598"/>
    <path d="M-54,-42 C-50,-32 -40,-32 -30,-36 C-18,-42 -8,-42 0,-36 C8,-42 18,-42 30,-36 C40,-32 50,-32 54,-42" fill="none" stroke="#D9C68C" stroke-width="1.8" opacity="0.6"/>
    <path d="M-48,-150 C-60,-122 -60,-78 -54,-42 C-50,-32 -40,-32 -30,-36 C-18,-42 -8,-42 0,-36 C8,-42 18,-42 30,-36 C40,-32 50,-32 54,-42 C60,-78 60,-122 48,-150 C28,-165 -28,-165 -48,-150 Z" filter="url(#cloth)" opacity="0.3"/>
    <path d="M-52,-148 C-58,-124 -54,-108 -46,-100 C-38,-110 -28,-110 -22,-100 C-14,-110 -6,-110 0,-100 C6,-110 14,-110 22,-100 C28,-110 38,-110 46,-100 C54,-108 58,-124 52,-148 C30,-162 -30,-162 -52,-148 Z" fill="url(#capeGreen2Top)"/>
    <use href="#yoke" color="#E4D194"/>
    <path d="M-46,-100 C-38,-110 -28,-110 -22,-100 C-14,-110 -6,-110 0,-100 C6,-110 14,-110 22,-100 C28,-110 38,-110 46,-100" fill="none" stroke="#E9D598" stroke-width="1.6" opacity="0.7"/>
    <path d="M-48,-148 C-60,-120 -60,-80 -54,-44" fill="none" stroke="#FBE7C6" stroke-width="2.4" opacity="0.5" stroke-linecap="round"/>
    <path d="M-52,-146 C-56,-128 -52,-114 -46,-104" fill="none" stroke="#FBE7C6" stroke-width="2" opacity="0.45" stroke-linecap="round"/>
    <ellipse cx="61" cy="-100" rx="10" ry="9" fill="#A9806A"/>
    <path d="M53,-102 C51,-96 53,-90 59,-89" fill="none" stroke="#FBE7C6" stroke-width="1.5" opacity="0.5" stroke-linecap="round"/>
    <use href="#phead"/>
  </g>

  <!-- LEFT brother: terracotta dense plaid, raised fist (set back) -->
  <g transform="translate(838,998) scale(0.9)">
    <path d="M-46,-116 C-58,-98 -62,-82 -60,-70 C-52,-76 -48,-90 -42,-104 Z" fill="url(#capeOrange)"/>
    <use href="#plegs"/>
    <path d="M-48,-150 C-60,-122 -60,-78 -54,-42 C-50,-32 -40,-32 -30,-36 C-18,-42 -8,-42 0,-36 C8,-42 18,-42 30,-36 C40,-32 50,-32 54,-42 C60,-78 60,-122 48,-150 C28,-165 -28,-165 -48,-150 Z" fill="url(#capeOrange)"/>
    <g clip-path="url(#clipRobe)">
      <g stroke="#EAC79A" stroke-width="1.4" opacity="0.36">
        <g transform="rotate(26 0 -90)">
          <line x1="-180" y1="-192" x2="180" y2="-192"/><line x1="-180" y1="-180" x2="180" y2="-180"/><line x1="-180" y1="-168" x2="180" y2="-168"/><line x1="-180" y1="-156" x2="180" y2="-156"/><line x1="-180" y1="-144" x2="180" y2="-144"/><line x1="-180" y1="-132" x2="180" y2="-132"/><line x1="-180" y1="-120" x2="180" y2="-120"/><line x1="-180" y1="-108" x2="180" y2="-108"/><line x1="-180" y1="-96" x2="180" y2="-96"/><line x1="-180" y1="-84" x2="180" y2="-84"/><line x1="-180" y1="-72" x2="180" y2="-72"/><line x1="-180" y1="-60" x2="180" y2="-60"/><line x1="-180" y1="-48" x2="180" y2="-48"/><line x1="-180" y1="-36" x2="180" y2="-36"/><line x1="-180" y1="-24" x2="180" y2="-24"/><line x1="-180" y1="-12" x2="180" y2="-12"/>
        </g>
        <g transform="rotate(-26 0 -90)">
          <line x1="-180" y1="-192" x2="180" y2="-192"/><line x1="-180" y1="-180" x2="180" y2="-180"/><line x1="-180" y1="-168" x2="180" y2="-168"/><line x1="-180" y1="-156" x2="180" y2="-156"/><line x1="-180" y1="-144" x2="180" y2="-144"/><line x1="-180" y1="-132" x2="180" y2="-132"/><line x1="-180" y1="-120" x2="180" y2="-120"/><line x1="-180" y1="-108" x2="180" y2="-108"/><line x1="-180" y1="-96" x2="180" y2="-96"/><line x1="-180" y1="-84" x2="180" y2="-84"/><line x1="-180" y1="-72" x2="180" y2="-72"/><line x1="-180" y1="-60" x2="180" y2="-60"/><line x1="-180" y1="-48" x2="180" y2="-48"/><line x1="-180" y1="-36" x2="180" y2="-36"/><line x1="-180" y1="-24" x2="180" y2="-24"/><line x1="-180" y1="-12" x2="180" y2="-12"/>
        </g>
      </g>
      <g stroke="#F6DDB2" stroke-width="1" opacity="0.42">
        <g transform="rotate(26 0 -90)">
          <line x1="-180" y1="-180" x2="180" y2="-180"/><line x1="-180" y1="-156" x2="180" y2="-156"/><line x1="-180" y1="-132" x2="180" y2="-132"/><line x1="-180" y1="-108" x2="180" y2="-108"/><line x1="-180" y1="-84" x2="180" y2="-84"/><line x1="-180" y1="-60" x2="180" y2="-60"/><line x1="-180" y1="-36" x2="180" y2="-36"/>
        </g>
        <g transform="rotate(-26 0 -90)">
          <line x1="-180" y1="-180" x2="180" y2="-180"/><line x1="-180" y1="-156" x2="180" y2="-156"/><line x1="-180" y1="-132" x2="180" y2="-132"/><line x1="-180" y1="-108" x2="180" y2="-108"/><line x1="-180" y1="-84" x2="180" y2="-84"/><line x1="-180" y1="-60" x2="180" y2="-60"/><line x1="-180" y1="-36" x2="180" y2="-36"/>
        </g>
      </g>
    </g>
    <g fill="#F8E6C2" opacity="0.5">
      <circle cx="0" cy="-116" r="1.2"/><circle cx="0" cy="-92" r="1.2"/><circle cx="0" cy="-68" r="1.2"/>
      <circle cx="-22" cy="-104" r="1.1"/><circle cx="22" cy="-104" r="1.1"/>
      <circle cx="-22" cy="-80" r="1.1"/><circle cx="22" cy="-80" r="1.1"/>
      <circle cx="-14" cy="-128" r="1.1"/><circle cx="14" cy="-128" r="1.1"/>
      <circle cx="-30" cy="-64" r="1"/><circle cx="30" cy="-64" r="1"/>
      <circle cx="-12" cy="-56" r="1"/><circle cx="12" cy="-56" r="1"/>
    </g>
    <path d="M0,-148 C2,-100 2,-62 0,-34" fill="none" stroke="#7A3E1C" stroke-width="7" opacity="0.15" stroke-linecap="round"/>
    <path d="M38,-148 C56,-108 56,-64 48,-36" fill="none" stroke="#7A3E1C" stroke-width="15" opacity="0.16" stroke-linecap="round"/>
    <path d="M-48,-150 C-60,-122 -60,-78 -54,-42 C-50,-32 -40,-32 -30,-36 C-18,-42 -8,-42 0,-36 C8,-42 18,-42 30,-36 C40,-32 50,-32 54,-42 C60,-78 60,-122 48,-150 C28,-165 -28,-165 -48,-150 Z" filter="url(#cloth)" opacity="0.26"/>
    <path d="M-52,-148 C-58,-124 -54,-108 -46,-100 C-38,-110 -28,-110 -22,-100 C-14,-110 -6,-110 0,-100 C6,-110 14,-110 22,-100 C28,-110 38,-110 46,-100 C54,-108 58,-124 52,-148 C30,-162 -30,-162 -52,-148 Z" fill="url(#capeOrangeTop)"/>
    <use href="#yoke" color="#F3D3A0"/>
    <path d="M-46,-100 C-38,-110 -28,-110 -22,-100 C-14,-110 -6,-110 0,-100 C6,-110 14,-110 22,-100 C28,-110 38,-110 46,-100" fill="none" stroke="#F6DDB2" stroke-width="1.8" opacity="0.7"/>
    <path d="M-48,-148 C-60,-120 -60,-80 -54,-44" fill="none" stroke="#FBE7C6" stroke-width="2.6" opacity="0.55" stroke-linecap="round"/>
    <path d="M-52,-146 C-56,-128 -52,-114 -46,-104" fill="none" stroke="#FBE7C6" stroke-width="2" opacity="0.5" stroke-linecap="round"/>
    <path d="M34,-128 C46,-142 55,-158 57,-176 C49,-180 41,-172 39,-160 C37,-148 32,-136 26,-128 Z" fill="url(#capeOrangeTop)"/>
    <ellipse cx="59" cy="-180" rx="12" ry="11" fill="#A9806A"/>
    <path d="M50,-182 Q59,-188 68,-182" fill="none" stroke="#7A5140" stroke-width="1.4" opacity="0.5"/>
    <path d="M49,-184 C47,-178 49,-172 55,-171" fill="none" stroke="#FBE7C6" stroke-width="1.8" opacity="0.6" stroke-linecap="round"/>
    <use href="#phead"/>
  </g>

  <!-- MIDDLE brother: green, holding a map (hero, frontmost) -->
  <g transform="translate(958,1012) scale(1.0)">
    <path d="M46,-116 C58,-98 62,-80 60,-68 C52,-74 48,-88 42,-104 Z" fill="url(#capeGreen)"/>
    <use href="#plegs"/>
    <path d="M-48,-150 C-60,-122 -60,-78 -54,-42 C-50,-32 -40,-32 -30,-36 C-18,-42 -8,-42 0,-36 C8,-42 18,-42 30,-36 C40,-32 50,-32 54,-42 C60,-78 60,-122 48,-150 C28,-165 -28,-165 -48,-150 Z" fill="url(#capeGreen)"/>
    <path d="M0,-148 C2,-100 2,-62 0,-34" fill="none" stroke="#213E19" stroke-width="7" opacity="0.18" stroke-linecap="round"/>
    <path d="M38,-148 C56,-108 56,-64 48,-36" fill="none" stroke="#213E19" stroke-width="15" opacity="0.16" stroke-linecap="round"/>
    <use href="#emb" transform="translate(1.5,-60.5)" color="#1D3410" opacity="0.5"/>
    <use href="#emb" transform="translate(0,-62)" color="#EFDCA2"/>
    <path d="M-54,-42 C-50,-32 -40,-32 -30,-36 C-18,-42 -8,-42 0,-36 C8,-42 18,-42 30,-36 C40,-32 50,-32 54,-42" fill="none" stroke="#DECB90" stroke-width="1.8" opacity="0.65"/>
    <path d="M-48,-150 C-60,-122 -60,-78 -54,-42 C-50,-32 -40,-32 -30,-36 C-18,-42 -8,-42 0,-36 C8,-42 18,-42 30,-36 C40,-32 50,-32 54,-42 C60,-78 60,-122 48,-150 C28,-165 -28,-165 -48,-150 Z" filter="url(#cloth)" opacity="0.3"/>
    <path d="M-52,-148 C-58,-124 -54,-108 -46,-100 C-38,-110 -28,-110 -22,-100 C-14,-110 -6,-110 0,-100 C6,-110 14,-110 22,-100 C28,-110 38,-110 46,-100 C54,-108 58,-124 52,-148 C30,-162 -30,-162 -52,-148 Z" fill="url(#capeGreenTop)"/>
    <use href="#yoke" color="#EFDCA2"/>
    <path d="M-46,-100 C-38,-110 -28,-110 -22,-100 C-14,-110 -6,-110 0,-100 C6,-110 14,-110 22,-100 C28,-110 38,-110 46,-100" fill="none" stroke="#EFDCA2" stroke-width="1.6" opacity="0.7"/>
    <path d="M-48,-148 C-60,-120 -60,-80 -54,-44" fill="none" stroke="#FBE7C6" stroke-width="2.6" opacity="0.5" stroke-linecap="round"/>
    <path d="M-52,-146 C-56,-128 -52,-114 -46,-104" fill="none" stroke="#FBE7C6" stroke-width="2.1" opacity="0.45" stroke-linecap="round"/>
    <path d="M-30,-126 C-46,-122 -58,-114 -62,-102 C-54,-100 -42,-106 -32,-116 Z" fill="url(#capeGreenTop)"/>
    <ellipse cx="-60" cy="-102" rx="10" ry="9" fill="#A9806A"/>
    <g transform="translate(-70,-92) rotate(-12) scale(1.28)">
      <path d="M-24,-30 L26,-32 L28,28 L-24,30 Z" fill="#EFE1BE"/>
      <path d="M20,-32 C24,-30 26,-26 26,-21 C22,-23 20,-27 20,-32 Z" fill="#D8C79A"/>
      <path d="M-24,-30 L26,-32 L28,28 L-24,30 Z" fill="none" stroke="#C6AC70" stroke-width="1.8"/>
      <g stroke="#CBB27C" stroke-width="1" opacity="0.7"><path d="M2,-31 L3,29"/><path d="M-24,-1 L28,-3"/></g>
      <path d="M-18,-18 C-8,-22 -2,-12 6,-16 C14,-20 20,-12 22,-6" fill="none" stroke="#9BB08A" stroke-width="2" opacity="0.85"/>
      <path d="M-16,14 C-6,8 4,16 14,8 L22,2" fill="none" stroke="#B4703E" stroke-width="1.6" stroke-dasharray="3 3"/>
      <path d="M17,-3 l6,6 M23,-3 l-6,6" stroke="#A83B2A" stroke-width="2"/>
      <circle cx="-13" cy="-8" r="3.5" fill="none" stroke="#9A7B45" stroke-width="1.4"/>
      <path d="M-13,-12 L-13,-4 M-17,-8 L-9,-8" fill="none" stroke="#9A7B45" stroke-width="1"/>
    </g>
    <use href="#phead"/>
  </g>

  <!-- BIRDS -->
  <g stroke="#6E7F86" stroke-width="2" fill="none" opacity="0.55" stroke-linecap="round">
    <path d="M1508,300 q7,-7 14,0 q7,-7 14,0"/>
    <path d="M1556,318 q6,-6 12,0 q6,-6 12,0"/>
    <path d="M1584,296 q5,-5 10,0 q5,-5 10,0"/>
  </g>

  <!-- BOTTOM-LEFT FOREGROUND CORNER -->
  <path d="M0,1008 C140,976 300,982 430,1016 C330,1046 170,1068 0,1076 Z M0,1076 L430,1016 C460,1026 480,1040 490,1080 L0,1080 Z" fill="#B4C48D" opacity="0.85"/>
  <g fill="none" stroke="#8CA96B" stroke-width="3.5" stroke-linecap="round">
    <path d="M70,1080 Q62,1022 78,984"/>
    <path d="M110,1080 Q118,1020 102,978"/>
    <path d="M156,1080 Q148,1034 164,1000"/>
    <path d="M202,1080 Q210,1040 196,1008"/>
    <path d="M42,1080 Q38,1044 50,1018"/>
  </g>
  <g fill="#B34F3F">
    <circle cx="79" cy="979" r="6"/><circle cx="101" cy="972" r="6.5"/><circle cx="165" cy="994" r="5.5"/>
  </g>
  <g fill="#C9B26A">
    <circle cx="197" cy="1003" r="4.5"/><circle cx="51" cy="1013" r="4"/>
  </g>
  <g fill="#F6EFD8" opacity="0.65">
    <circle cx="300" cy="1036" r="4"/><circle cx="360" cy="1014" r="3.5"/><circle cx="430" cy="1050" r="4"/>
    <circle cx="260" cy="1066" r="3.5"/><circle cx="510" cy="1030" r="3"/>
  </g>

  <!-- SUN BEAMS (clipped above horizon) -->
  <g clip-path="url(#beamClip)">
    <polygon points="300,0 560,0 1220,1080 850,1080" fill="url(#beam)"/>
    <polygon points="630,0 770,0 1580,1080 1340,1080" fill="url(#beam)" opacity="0.75"/>
  </g>

  <!-- GRAIN -->
  <rect width="1920" height="1080" filter="url(#grain)" opacity="0.14" style="mix-blend-mode:soft-light"/>
</svg>
