<svg xmlns="http://www.w3.org/2000/svg" viewBox="0 0 1920 1080">
  <defs>
    <linearGradient id="sky" x1="0" y1="0" x2="0" y2="1">
      <stop offset="0" stop-color="#AEC8D6"/>
      <stop offset="0.30" stop-color="#C9DAD8"/>
      <stop offset="0.56" stop-color="#E2E2D2"/>
      <stop offset="0.78" stop-color="#F0E7D1"/>
      <stop offset="1" stop-color="#F5EBD6"/>
    </linearGradient>
    <radialGradient id="horizonGlow" cx="0.6" cy="0.5" r="0.6">
      <stop offset="0" stop-color="#FBEBC6" stop-opacity="0.85"/>
      <stop offset="0.5" stop-color="#F7E6C2" stop-opacity="0.35"/>
      <stop offset="1" stop-color="#F7E6C2" stop-opacity="0"/>
    </radialGradient>
    <radialGradient id="houseGlow" cx="0.5" cy="0.5" r="0.5">
      <stop offset="0" stop-color="#FFEEC4" stop-opacity="0.8"/>
      <stop offset="1" stop-color="#FFEEC4" stop-opacity="0"/>
    </radialGradient>
    <radialGradient id="lightPool" cx="0.5" cy="0.5" r="0.5">
      <stop offset="0" stop-color="#F6EBBE" stop-opacity="0.5"/>
      <stop offset="1" stop-color="#F6EBBE" stop-opacity="0"/>
    </radialGradient>
    <radialGradient id="amberBand" cx="0.72" cy="0.5" r="0.58">
      <stop offset="0" stop-color="#F4BC63" stop-opacity="0.82"/>
      <stop offset="0.52" stop-color="#F3C77E" stop-opacity="0.34"/>
      <stop offset="1" stop-color="#F3C77E" stop-opacity="0"/>
    </radialGradient>
    <linearGradient id="bark" x1="0" y1="0" x2="1" y2="0">
      <stop offset="0" stop-color="#4C382C"/>
      <stop offset="0.5" stop-color="#63493A"/>
      <stop offset="1" stop-color="#7E5F49"/>
    </linearGradient>
    <linearGradient id="brick" x1="0" y1="0" x2="1" y2="0.2">
      <stop offset="0" stop-color="#C4693F"/>
      <stop offset="0.55" stop-color="#B25733"/>
      <stop offset="1" stop-color="#9C4728"/>
    </linearGradient>
    <linearGradient id="roof" x1="0" y1="0" x2="0" y2="1">
      <stop offset="0" stop-color="#D07A38"/>
      <stop offset="1" stop-color="#B65B26"/>
    </linearGradient>
    <linearGradient id="cloak" x1="0" y1="0" x2="0" y2="1">
      <stop offset="0" stop-color="#71824A"/>
      <stop offset="0.5" stop-color="#5E6E3B"/>
      <stop offset="1" stop-color="#46532C"/>
    </linearGradient>
    <linearGradient id="path" x1="0" y1="0" x2="0" y2="1">
      <stop offset="0" stop-color="#EADEB6"/>
      <stop offset="1" stop-color="#D8C79A"/>
    </linearGradient>
    <linearGradient id="meadow" x1="0" y1="0" x2="0" y2="1">
      <stop offset="0" stop-color="#AFB877"/>
      <stop offset="1" stop-color="#98A65E"/>
    </linearGradient>
    <linearGradient id="win" x1="0" y1="0" x2="0" y2="1">
      <stop offset="0" stop-color="#FBE3A0"/>
      <stop offset="1" stop-color="#F3C972"/>
    </linearGradient>
    <filter id="soft" x="-50%" y="-50%" width="200%" height="200%">
      <feGaussianBlur stdDeviation="7"/>
    </filter>
    <filter id="softer" x="-60%" y="-60%" width="220%" height="220%">
      <feGaussianBlur stdDeviation="16"/>
    </filter>
    <filter id="hillTex" x="-5%" y="-5%" width="110%" height="110%">
      <feTurbulence type="fractalNoise" baseFrequency="0.006 0.014" numOctaves="2" seed="7" result="n"/>
      <feColorMatrix in="n" type="matrix" values="0 0 0 0 0.30  0 0 0 0 0.40  0 0 0 0 0.22  0.7 0.7 0.7 0 -0.72"/>
      <feComposite operator="in" in2="SourceGraphic"/>
    </filter>
    <filter id="grain" x="0" y="0" width="100%" height="100%">
      <feTurbulence type="fractalNoise" baseFrequency="0.9" numOctaves="2" stitchTiles="stitch" result="n"/>
      <feColorMatrix in="n" type="saturate" values="0"/>
      <feComponentTransfer><feFuncA type="linear" slope="0.5"/></feComponentTransfer>
    </filter>

    <!-- ===== LEAF SPRIG (fan of geometric leaves) ===== -->
    <g id="sprig">
      <g fill="#48633E">
        <path transform="rotate(-66)" d="M0,3 C7,-6 7,-18 0,-31 C-7,-18 -7,-6 0,3 Z"/>
        <path transform="rotate(66)" d="M0,3 C7,-6 7,-18 0,-31 C-7,-18 -7,-6 0,3 Z"/>
        <path transform="rotate(-46)" d="M0,3 C7,-6 7,-18 0,-31 C-7,-18 -7,-6 0,3 Z" opacity="0.95"/>
      </g>
      <g fill="#65875A">
        <path transform="rotate(-44)" d="M0,3 C7,-6 7,-18 0,-31 C-7,-18 -7,-6 0,3 Z"/>
        <path transform="rotate(44)" d="M0,3 C7,-6 7,-18 0,-31 C-7,-18 -7,-6 0,3 Z"/>
        <path transform="rotate(-22)" d="M0,3 C7,-6 7,-18 0,-31 C-7,-18 -7,-6 0,3 Z" opacity="0.9"/>
      </g>
      <g fill="#87A874">
        <path transform="rotate(-20)" d="M0,3 C6,-6 6,-18 0,-29 C-6,-18 -6,-6 0,3 Z"/>
        <path transform="rotate(0)" d="M0,3 C6,-6 6,-20 0,-33 C-6,-20 -6,-6 0,3 Z"/>
        <path transform="rotate(20)" d="M0,3 C6,-6 6,-18 0,-29 C-6,-18 -6,-6 0,3 Z"/>
      </g>
      <g stroke="#A6C48D" stroke-width="1.1" opacity="0.55" fill="none" stroke-linecap="round">
        <path transform="rotate(-20)" d="M0,-2 L0,-26"/>
        <path d="M0,-2 L0,-29"/>
        <path transform="rotate(20)" d="M0,-2 L0,-26"/>
      </g>
    </g>

    <!-- ===== DECORATIVE TREE (trunk + geometric canopy) ===== -->
    <g id="tree">
      <ellipse cx="0" cy="4" rx="120" ry="16" fill="#6F7E4E" opacity="0.25"/>
      <!-- branches -->
      <g stroke="#523E31" stroke-linecap="round" fill="none">
        <path d="M-6,-140 C-30,-160 -54,-182 -82,-214" stroke-width="9"/>
        <path d="M6,-140 C30,-162 56,-186 84,-218" stroke-width="9"/>
        <path d="M0,-150 C2,-190 6,-224 2,-262" stroke-width="9"/>
        <path d="M-40,-176 C-56,-196 -72,-214 -92,-236" stroke-width="6"/>
        <path d="M40,-178 C58,-198 74,-214 96,-236" stroke-width="6"/>
      </g>
      <!-- trunk -->
      <path d="M-19,8 C-22,-34 -14,-74 -13,-118 C-12,-142 -20,-158 -15,-172
               C-9,-180 -2,-175 0,-152
               C2,-175 9,-180 15,-172
               C20,-158 12,-142 13,-118 C14,-74 22,-34 19,8
               C10,12 -10,12 -19,8 Z" fill="url(#bark)"/>
      <g stroke="#3F2E24" stroke-width="1.6" opacity="0.4" fill="none" stroke-linecap="round">
        <path d="M-8,-10 C-10,-60 -6,-110 -8,-150"/>
        <path d="M4,-6 C6,-70 2,-120 3,-158"/>
      </g>
      <path d="M-19,8 C-30,4 -34,-6 -30,-14 C-24,-8 -21,-4 -19,2 Z" fill="#4C382C"/>
      <path d="M19,8 C30,4 34,-6 30,-14 C24,-8 21,-4 19,2 Z" fill="#4C382C"/>
      <path d="M13,-118 C18,-140 12,-158 13,-172" stroke="#8E6C52" stroke-width="2" fill="none" opacity="0.6" stroke-linecap="round"/>
      <!-- canopy base silhouette -->
      <path d="M-142,-196
               C-168,-236 -156,-306 -120,-336
               C-136,-378 -94,-424 -48,-412
               C-28,-448 44,-452 74,-416
               C124,-428 164,-380 152,-330
               C188,-300 182,-232 150,-198
               C162,-158 120,-128 80,-140
               C50,-118 -32,-120 -62,-140
               C-108,-128 -152,-158 -142,-196 Z" fill="#425C39"/>
      <!-- mid green masses -->
      <g fill="#5E7E52">
        <ellipse cx="-74" cy="-244" rx="72" ry="58" transform="rotate(-10 -74 -244)"/>
        <ellipse cx="34" cy="-306" rx="88" ry="66"/>
        <ellipse cx="98" cy="-244" rx="56" ry="52"/>
        <ellipse cx="-32" cy="-182" rx="78" ry="46"/>
        <ellipse cx="42" cy="-378" rx="56" ry="42"/>
        <ellipse cx="-108" cy="-300" rx="42" ry="46"/>
      </g>
      <!-- dark gap accents -->
      <g fill="#375030" opacity="0.85">
        <ellipse cx="-40" cy="-236" rx="24" ry="30" transform="rotate(20 -40 -236)"/>
        <ellipse cx="70" cy="-300" rx="20" ry="26"/>
        <ellipse cx="-96" cy="-208" rx="20" ry="22"/>
        <ellipse cx="10" cy="-150" rx="26" ry="18"/>
      </g>
      <!-- light highlight masses (sun from right) -->
      <g fill="#82A46F">
        <ellipse cx="76" cy="-334" rx="46" ry="38"/>
        <ellipse cx="116" cy="-268" rx="34" ry="34"/>
        <ellipse cx="22" cy="-388" rx="40" ry="28"/>
        <ellipse cx="-38" cy="-336" rx="34" ry="28"/>
        <ellipse cx="60" cy="-210" rx="34" ry="26"/>
      </g>
      <!-- sunlit rim highlight (upper-left light facets) -->
      <g fill="#A4C489" opacity="0.92">
        <ellipse cx="-98" cy="-318" rx="30" ry="24" transform="rotate(-14 -98 -318)"/>
        <ellipse cx="-66" cy="-362" rx="26" ry="19"/>
        <ellipse cx="-120" cy="-262" rx="21" ry="19"/>
        <ellipse cx="-30" cy="-392" rx="24" ry="16"/>
      </g>
      <!-- geometric leaf sprigs -->
      <use href="#sprig" transform="translate(-96,-198) scale(1.2) rotate(-20)"/>
      <use href="#sprig" transform="translate(-120,-282) scale(1.3) rotate(-14)"/>
      <use href="#sprig" transform="translate(-134,-232) scale(1.1) rotate(-30)"/>
      <use href="#sprig" transform="translate(-78,-342) scale(1.25) rotate(-6)"/>
      <use href="#sprig" transform="translate(-58,-330) scale(1.1)"/>
      <use href="#sprig" transform="translate(-22,-392) scale(1.3)"/>
      <use href="#sprig" transform="translate(12,-300) scale(1.45)"/>
      <use href="#sprig" transform="translate(44,-406) scale(1.25) rotate(8)"/>
      <use href="#sprig" transform="translate(92,-372) scale(1.3) rotate(14)"/>
      <use href="#sprig" transform="translate(130,-300) scale(1.25) rotate(24)"/>
      <use href="#sprig" transform="translate(118,-212) scale(1.2) rotate(30)"/>
      <use href="#sprig" transform="translate(72,-262) scale(1.25) rotate(16)"/>
      <use href="#sprig" transform="translate(58,-158) scale(1.15) rotate(22)"/>
      <use href="#sprig" transform="translate(-42,-152) scale(1.15) rotate(-18)"/>
      <use href="#sprig" transform="translate(-118,-160) scale(1.0) rotate(-40)"/>
      <use href="#sprig" transform="translate(-8,-232) scale(1.2)"/>
    </g>

    <!-- ===== CYPRESS ===== -->
    <g id="cypress">
      <ellipse cx="0" cy="2" rx="30" ry="6" fill="#6F7E4E" opacity="0.3"/>
      <path d="M0,4 C-16,-30 -20,-96 -12,-150 C-8,-186 -4,-210 0,-224 C4,-210 8,-186 12,-150 C20,-96 16,-30 0,4 Z" fill="#4E6C47"/>
      <path d="M0,4 C-6,-40 -8,-110 -4,-176 C-2,-206 0,-216 0,-224 C2,-206 4,-176 5,-140 C8,-80 8,-30 0,4 Z" fill="#5E7E52" opacity="0.85"/>
      <path d="M2,-10 C6,-70 8,-140 6,-200" stroke="#78996A" stroke-width="2.5" fill="none" opacity="0.5" stroke-linecap="round"/>
    </g>

    <!-- ===== SHRUB ===== -->
    <g id="shrub">
      <ellipse cx="0" cy="0" rx="22" ry="4" fill="#5E6E42" opacity="0.3"/>
      <path d="M-20,-2 C-24,-18 -12,-30 0,-26 C6,-36 22,-32 22,-18 C28,-10 22,0 12,-1 C0,2 -14,2 -20,-2 Z" fill="#6C8B5C"/>
      <path d="M-10,-14 C-12,-24 -2,-30 6,-24 C14,-28 22,-20 18,-12 C10,-8 -2,-8 -10,-14 Z" fill="#82A46F"/>
    </g>

    <!-- ===== PIG (back view, cloaked, walking) ===== -->
    <g id="pig">
      <ellipse cx="0" cy="6" rx="48" ry="10" fill="#6C7A4C" opacity="0.32"/>
      <!-- feet -->
      <path d="M-26,0 C-26,-18 -8,-18 -8,0 Z" fill="#2E2A1B"/>
      <path d="M8,0 C8,-18 26,-18 26,0 Z" fill="#37331F"/>
      <!-- cloak body -->
      <path d="M-44,-14 C-49,-56 -42,-98 -27,-124 C-21,-134 -9,-138 0,-138
               C9,-138 21,-134 27,-124 C42,-98 49,-56 44,-14
               C24,-4 -24,-4 -44,-14 Z" fill="url(#cloak)"/>
      <!-- left side shadow -->
      <path d="M-44,-14 C-49,-56 -42,-98 -27,-124 C-24,-128 -19,-131 -14,-133
               C-24,-110 -30,-70 -26,-20 C-32,-16 -39,-15 -44,-14 Z" fill="#3E4A28" opacity="0.55"/>
      <!-- center lit panel -->
      <path d="M-8,-128 C-2,-130 2,-130 8,-128 C12,-92 12,-46 8,-16 C2,-14 -2,-14 -8,-16 C-12,-46 -12,-92 -8,-128 Z" fill="#7C8C4E" opacity="0.35"/>
      <!-- hem trim -->
      <path d="M-43,-16 C-22,-6 22,-6 43,-16" stroke="#B9C280" stroke-width="3.4" fill="none" opacity="0.55"/>
      <path d="M-42,-22 C-21,-13 21,-13 42,-22" stroke="#8C9A55" stroke-width="2" fill="none" opacity="0.5"/>
      <!-- ==== embroidery ==== -->
      <!-- shoulder yoke arch -->
      <path d="M-30,-116 C-16,-127 16,-127 30,-116" stroke="#C6CE8C" stroke-width="2.4" fill="none" opacity="0.6"/>
      <path d="M-25,-109 C-13,-118 13,-118 25,-109" stroke="#AEB979" stroke-width="1.5" fill="none" opacity="0.5"/>
      <g fill="#C6CE8C" opacity="0.5"><circle cx="-30" cy="-116" r="2"/><circle cx="0" cy="-124" r="2.2"/><circle cx="30" cy="-116" r="2"/></g>
      <!-- back seam -->
      <path d="M0,-118 L0,-24" stroke="#B9C280" stroke-width="1.4" opacity="0.4"/>
      <!-- central medallion -->
      <circle cx="0" cy="-72" r="17" fill="none" stroke="#C6CE8C" stroke-width="2.2" opacity="0.65"/>
      <circle cx="0" cy="-72" r="10" fill="none" stroke="#AEB979" stroke-width="1.4" opacity="0.55"/>
      <path d="M0,-85 L12,-72 L0,-59 L-12,-72 Z" fill="none" stroke="#C6CE8C" stroke-width="1.8" opacity="0.6"/>
      <circle cx="0" cy="-72" r="2.6" fill="#C6CE8C" opacity="0.6"/>
      <g stroke="#AEB979" stroke-width="1.2" opacity="0.45" stroke-linecap="round"><path d="M0,-92 L0,-98"/><path d="M0,-52 L0,-46"/><path d="M-20,-72 L-26,-72"/><path d="M20,-72 L26,-72"/></g>
      <!-- hem filigree -->
      <path d="M-38,-24 Q-28,-31 -19,-24 Q-9,-31 0,-24 Q9,-31 19,-24 Q28,-31 38,-24" stroke="#C6CE8C" stroke-width="1.7" fill="none" opacity="0.5"/>
      <g fill="#C6CE8C" opacity="0.45"><circle cx="-28" cy="-24" r="1.5"/><circle cx="-9" cy="-24" r="1.5"/><circle cx="9" cy="-24" r="1.5"/><circle cx="28" cy="-24" r="1.5"/></g>
      <!-- shoulder cape / hood -->
      <path d="M-31,-118 C-22,-134 22,-134 31,-118 C24,-104 -24,-104 -31,-118 Z" fill="#54632F"/>
      <path d="M-31,-118 C-22,-134 22,-134 31,-118" stroke="#3D4A24" stroke-width="1.4" fill="none" opacity="0.6"/>
      <!-- real curly pig tail poking out below hem -->
      <path d="M0,-15 C11,-15 14,-2 4,-1 C-3,0 -2,-9 5,-10 C9,-11 9,-5 5,-5" stroke="#C39A8D" stroke-width="4.4" fill="none" stroke-linecap="round"/>
      <path d="M0,-15 C11,-15 14,-2 4,-1 C-3,0 -2,-9 5,-10" stroke="#E1BFB2" stroke-width="1.5" fill="none" stroke-linecap="round" opacity="0.7"/>
      <!-- ears (broad pig triangles, warm-brown) -->
      <path d="M-15,-160 C-24,-158 -30,-156 -33,-154 C-37,-176 -35,-189 -31,-189 C-24,-176 -19,-167 -15,-160 Z" fill="#8A6A52"/>
      <path d="M15,-160 C24,-158 30,-156 33,-154 C37,-176 35,-189 31,-189 C24,-176 19,-167 15,-160 Z" fill="#97765D"/>
      <!-- pink inner ears -->
      <path d="M-19,-161 C-24,-159 -28,-158 -30,-157 C-32,-173 -31,-181 -29,-182 C-25,-173 -22,-166 -19,-161 Z" fill="#D89A91" opacity="0.9"/>
      <path d="M19,-161 C24,-159 28,-158 30,-157 C32,-173 31,-181 29,-182 C25,-173 22,-166 19,-161 Z" fill="#E0A69D" opacity="0.92"/>
      <!-- head (rounded warm-brown pig cranium, back view) -->
      <path d="M-33,-114 C-40,-142 -30,-166 0,-166 C30,-166 40,-142 33,-114 C18,-106 -18,-106 -33,-114 Z" fill="#A17E63"/>
      <!-- soft left shade on head -->
      <path d="M-33,-114 C-39,-142 -30,-163 -9,-166 C-21,-150 -26,-130 -23,-110 C-27,-111 -30,-113 -33,-114 Z" fill="#886750" opacity="0.5"/>
      <!-- crown sunlit highlight -->
      <path d="M-20,-156 C-9,-165 9,-165 20,-156 C9,-160 -9,-160 -20,-156 Z" fill="#BC9878" opacity="0.65"/>
      <!-- subtle cheek hint (house side) -->
      <path d="M26,-132 C33,-133 34,-125 28,-123 C26,-126 26,-129 26,-132 Z" fill="#8E6E56" opacity="0.65"/>
      <!-- warm rim light (right / house side) -->
      <path d="M44,-14 C49,-56 42,-98 27,-124 C21,-134 9,-138 0,-138" stroke="#F1D8A2" stroke-width="2.2" fill="none" opacity="0.7" stroke-linecap="round"/>
      <path d="M33,-114 C40,-142 30,-166 0,-166" stroke="#F3DCA8" stroke-width="2" fill="none" opacity="0.6" stroke-linecap="round"/>
      <path d="M15,-160 C24,-158 30,-156 33,-154" stroke="#F3DCA8" stroke-width="1.4" fill="none" opacity="0.5" stroke-linecap="round"/>
    </g>
  </defs>

  <!-- ================= SCENE ================= -->
  <rect width="1920" height="1080" fill="url(#sky)"/>
  <ellipse cx="1180" cy="720" rx="820" ry="360" fill="url(#horizonGlow)"/>

  <!-- soft clouds -->
  <g fill="#FFFFFF" filter="url(#soft)">
    <g opacity="0.85"><ellipse cx="300" cy="238" rx="120" ry="34"/><ellipse cx="360" cy="222" rx="80" ry="30"/><ellipse cx="250" cy="250" rx="70" ry="26"/></g>
    <g opacity="0.8"><ellipse cx="1520" cy="220" rx="130" ry="36"/><ellipse cx="1580" cy="204" rx="86" ry="30"/><ellipse cx="1460" cy="234" rx="70" ry="26"/></g>
    <g opacity="0.5"><ellipse cx="900" cy="180" rx="110" ry="26"/><ellipse cx="960" cy="170" rx="70" ry="22"/></g>
    <g opacity="0.55"><ellipse cx="180" cy="400" rx="90" ry="24"/><ellipse cx="230" cy="392" rx="60" ry="20"/></g>
    <g opacity="0.5"><ellipse cx="1760" cy="410" rx="90" ry="24"/><ellipse cx="1710" cy="402" rx="60" ry="20"/></g>
  </g>

  <!-- ===== LAYERED HILLS ===== -->
  <path d="M0,676 C220,648 420,644 620,660 C860,680 1040,646 1260,660 C1480,674 1680,656 1920,668 L1920,760 L0,760 Z" fill="#CFDDCF"/>
  <path d="M0,706 C240,676 460,672 680,690 C920,708 1120,672 1360,688 C1560,700 1740,686 1920,700 L1920,800 L0,800 Z" fill="#BAD0BE"/>
  <path d="M0,738 C260,708 480,714 720,724 C960,734 1160,706 1420,720 C1620,730 1780,716 1920,728 L1920,830 L0,830 Z" fill="#A6C5AC"/>
  <path d="M0,738 C260,708 480,714 720,724 C960,734 1160,706 1420,720 C1620,730 1780,716 1920,728 L1920,836 L0,836 Z" fill="#B4CBB9" filter="url(#hillTex)" opacity="0.5"/>
  <!-- distant shrubs on ridges -->
  <g opacity="0.85">
    <use href="#shrub" transform="translate(250,742) scale(0.5)"/>
    <use href="#shrub" transform="translate(560,730) scale(0.55)"/>
    <use href="#shrub" transform="translate(1520,726) scale(0.55)"/>
    <use href="#shrub" transform="translate(1720,720) scale(0.5)"/>
  </g>

  <!-- mid sage hill -->
  <path d="M0,772 C260,732 460,752 700,758 C960,764 1140,730 1380,750 C1580,766 1760,746 1920,764 L1920,890 L0,890 Z" fill="#93B489"/>
  <path d="M0,772 C260,732 460,752 700,758 C960,764 1140,730 1380,750 C1580,766 1760,746 1920,764 L1920,890 L0,890 Z" fill="#7FA475" filter="url(#hillTex)" opacity="0.4"/>
  <g fill="#7CA06E" opacity="0.6" stroke="none">
    <path d="M0,806 C240,780 460,776 720,792" fill="none" stroke="#83A876" stroke-width="3" opacity="0.5"/>
    <path d="M1000,780 C1200,770 1400,772 1620,786" fill="none" stroke="#83A876" stroke-width="3" opacity="0.4"/>
  </g>

  <!-- warm amber sunset band (right horizon) -->
  <ellipse cx="1500" cy="742" rx="680" ry="188" fill="url(#amberBand)"/>
  <ellipse cx="1560" cy="770" rx="520" ry="70" fill="#F2C173" opacity="0.28" filter="url(#soft)"/>

  <!-- house plateau -->
  <path d="M560,844 C880,780 1140,762 1340,762 C1560,762 1740,792 1920,832 L1920,948 L560,948 Z" fill="#96AF75"/>

  <!-- ===== HOUSE ENSEMBLE ===== -->
  <g>
    <ellipse cx="1330" cy="640" rx="440" ry="240" fill="url(#houseGlow)"/>
    <!-- trees behind house -->
    <use href="#tree" transform="translate(1560,790) scale(0.62)"/>
    <use href="#cypress" transform="translate(1218,772) scale(1.0)"/>
    <use href="#cypress" transform="translate(1196,776) scale(0.72)"/>

    <!-- HOUSE -->
    <g>
      <ellipse cx="1338" cy="766" rx="150" ry="14" fill="#77925F" opacity="0.4"/>
      <!-- chimney -->
      <rect x="1402" y="536" width="22" height="66" fill="#9C4728"/>
      <rect x="1398" y="530" width="30" height="9" fill="#EFE2C8"/>
      <path d="M1414,528 C1408,506 1422,490 1416,468 C1410,446 1424,430 1418,408 C1414,392 1422,380 1418,368" stroke="#FFFFFF" stroke-width="9" fill="none" opacity="0.5" stroke-linecap="round" filter="url(#soft)"/>
      <path d="M1414,528 C1409,508 1420,492 1415,472 C1410,452 1421,436 1416,416" stroke="#F3EEE2" stroke-width="5" fill="none" opacity="0.55" stroke-linecap="round" filter="url(#soft)"/>
      <!-- roof -->
      <polygon points="1218,616 1338,514 1458,616" fill="url(#roof)"/>
      <polygon points="1218,616 1338,514 1348,514 1230,616" fill="#9C4B1E" opacity="0.55"/>
      <g stroke="#A6521F" stroke-width="2" opacity="0.5" fill="none">
        <path d="M1250,586 C1300,578 1376,578 1426,586"/>
        <path d="M1266,566 C1310,560 1366,560 1410,566"/>
        <path d="M1282,546 C1316,542 1360,542 1394,546"/>
      </g>
      <polygon points="1210,616 1338,508 1466,616 1454,624 1338,522 1222,624" fill="#C97C3C"/>
      <!-- wall -->
      <rect x="1244" y="616" width="188" height="150" fill="url(#brick)"/>
      <!-- brick courses -->
      <g stroke="#8B3E24" stroke-width="1" opacity="0.35">
        <line x1="1244" y1="628" x2="1432" y2="628"/><line x1="1244" y1="640" x2="1432" y2="640"/>
        <line x1="1244" y1="652" x2="1432" y2="652"/><line x1="1244" y1="664" x2="1432" y2="664"/>
        <line x1="1244" y1="676" x2="1432" y2="676"/><line x1="1244" y1="688" x2="1432" y2="688"/>
        <line x1="1244" y1="700" x2="1432" y2="700"/><line x1="1244" y1="712" x2="1432" y2="712"/>
        <line x1="1244" y1="724" x2="1432" y2="724"/><line x1="1244" y1="736" x2="1432" y2="736"/>
        <line x1="1244" y1="748" x2="1432" y2="748"/><line x1="1244" y1="760" x2="1432" y2="760"/>
      </g>
      <!-- lighter mortar highlight (running-bond depth) -->
      <g stroke="#D98A5E" stroke-width="1" opacity="0.28">
        <line x1="1244" y1="635" x2="1432" y2="635"/><line x1="1244" y1="647" x2="1432" y2="647"/>
        <line x1="1244" y1="659" x2="1432" y2="659"/><line x1="1244" y1="671" x2="1432" y2="671"/>
        <line x1="1244" y1="683" x2="1432" y2="683"/><line x1="1244" y1="695" x2="1432" y2="695"/>
        <line x1="1244" y1="707" x2="1432" y2="707"/><line x1="1244" y1="719" x2="1432" y2="719"/>
        <line x1="1244" y1="731" x2="1432" y2="731"/><line x1="1244" y1="743" x2="1432" y2="743"/>
        <line x1="1244" y1="755" x2="1432" y2="755"/>
      </g>
      <g stroke="#8B3E24" stroke-width="1" opacity="0.24">
        <line x1="1268" y1="616" x2="1268" y2="628"/><line x1="1316" y1="616" x2="1316" y2="628"/><line x1="1364" y1="616" x2="1364" y2="628"/><line x1="1412" y1="616" x2="1412" y2="628"/>
        <line x1="1292" y1="628" x2="1292" y2="640"/><line x1="1340" y1="628" x2="1340" y2="640"/><line x1="1388" y1="628" x2="1388" y2="640"/>
        <line x1="1268" y1="640" x2="1268" y2="652"/><line x1="1316" y1="640" x2="1316" y2="652"/><line x1="1364" y1="640" x2="1364" y2="652"/><line x1="1412" y1="640" x2="1412" y2="652"/>
        <line x1="1292" y1="652" x2="1292" y2="664"/><line x1="1340" y1="652" x2="1340" y2="664"/><line x1="1388" y1="652" x2="1388" y2="664"/>
        <line x1="1268" y1="664" x2="1268" y2="676"/><line x1="1412" y1="664" x2="1412" y2="676"/>
        <line x1="1292" y1="700" x2="1292" y2="712"/><line x1="1388" y1="700" x2="1388" y2="712"/>
        <line x1="1268" y1="712" x2="1268" y2="724"/><line x1="1412" y1="712" x2="1412" y2="724"/>
        <line x1="1340" y1="712" x2="1340" y2="724"/>
        <line x1="1292" y1="736" x2="1292" y2="748"/><line x1="1388" y1="736" x2="1388" y2="748"/>
        <line x1="1268" y1="748" x2="1268" y2="760"/><line x1="1412" y1="748" x2="1412" y2="760"/>
      </g>
      <!-- cornice -->
      <rect x="1238" y="610" width="200" height="8" fill="#EFE2C8"/>
      <!-- upper windows (lit) -->
      <g>
        <rect x="1264" y="634" width="26" height="36" fill="url(#win)"/>
        <rect x="1322" y="634" width="26" height="36" fill="url(#win)"/>
        <rect x="1386" y="634" width="26" height="36" fill="url(#win)"/>
      </g>
      <!-- lower left + right windows (lit) -->
      <rect x="1264" y="700" width="30" height="46" fill="url(#win)"/>
      <rect x="1382" y="700" width="30" height="46" fill="url(#win)"/>
      <!-- window frames + muntins -->
      <g fill="none" stroke="#7A4A2E" stroke-width="2">
        <rect x="1264" y="634" width="26" height="36"/><rect x="1322" y="634" width="26" height="36"/><rect x="1386" y="634" width="26" height="36"/>
        <rect x="1264" y="700" width="30" height="46"/><rect x="1382" y="700" width="30" height="46"/>
      </g>
      <g stroke="#7A4A2E" stroke-width="1.4" opacity="0.85">
        <line x1="1277" y1="634" x2="1277" y2="670"/><line x1="1264" y1="652" x2="1290" y2="652"/>
        <line x1="1335" y1="634" x2="1335" y2="670"/><line x1="1322" y1="652" x2="1348" y2="652"/>
        <line x1="1399" y1="634" x2="1399" y2="670"/><line x1="1386" y1="652" x2="1412" y2="652"/>
        <line x1="1279" y1="700" x2="1279" y2="746"/><line x1="1264" y1="723" x2="1294" y2="723"/>
        <line x1="1397" y1="700" x2="1397" y2="746"/><line x1="1382" y1="723" x2="1412" y2="723"/>
      </g>
      <!-- window sills + warm sill glow -->
      <g fill="#EFE2C8">
        <rect x="1261" y="670" width="32" height="4"/><rect x="1319" y="670" width="32" height="4"/><rect x="1383" y="670" width="32" height="4"/>
        <rect x="1261" y="746" width="36" height="5"/><rect x="1379" y="746" width="36" height="5"/>
      </g>
      <!-- arched door -->
      <path d="M1316,766 L1316,714 A22 22 0 0 1 1360,714 L1360,766 Z" fill="#5E3A22"/>
      <path d="M1316,714 A22 22 0 0 1 1360,714 L1360,720 A22 22 0 0 0 1316,720 Z" fill="#F4CF88" opacity="0.85"/>
      <rect x="1320" y="726" width="36" height="40" fill="#5E3A22"/>
      <line x1="1338" y1="720" x2="1338" y2="766" stroke="#42281733" stroke-width="2"/>
      <path d="M1310,766 h56 l4,4 h-64 Z" fill="#EFE2C8" opacity="0.7"/>
      <ellipse cx="1338" cy="770" rx="40" ry="10" fill="#F6D690" opacity="0.4" filter="url(#soft)"/>
      <!-- sunlit wall edge (right) + roof shade -->
      <rect x="1429" y="616" width="3" height="150" fill="#F0A87E" opacity="0.7"/>
      <!-- front hedges -->
      <path d="M1246,766 Q1260,752 1278,766 Q1294,754 1312,766 L1312,772 L1246,772 Z" fill="#6C8B5C"/>
      <path d="M1364,766 Q1380,754 1398,766 Q1414,754 1430,766 L1430,772 L1364,772 Z" fill="#6C8B5C"/>
    </g>
  </g>

  <!-- ===== FOREGROUND MEADOW ===== -->
  <path d="M0,888 C280,826 520,814 780,836 C1040,858 1300,856 1560,890 C1700,908 1830,920 1920,928 L1920,1080 L0,1080 Z" fill="url(#meadow)"/>
  <ellipse cx="720" cy="980" rx="560" ry="180" fill="url(#lightPool)"/>
  <path d="M0,888 C280,826 520,814 780,836 C1040,858 1300,856 1560,890 C1700,908 1830,920 1920,928 L1920,1080 L0,1080 Z" fill="#849259" filter="url(#hillTex)" opacity="0.3"/>
  <g stroke="#B0C083" stroke-width="3" fill="none" opacity="0.4">
    <path d="M40,946 C280,900 500,890 720,904"/>
    <path d="M20,996 C260,946 480,934 700,948"/>
    <path d="M80,1046 C300,998 520,986 720,1000"/>
    <path d="M1160,900 C1320,910 1460,922 1600,938"/>
  </g>

  <!-- ===== PATH ===== -->
  <path d="M540,1080 C700,978 900,936 1090,900 C1210,876 1300,834 1352,776 L1414,776 C1360,842 1244,894 1120,926 C960,966 800,1002 724,1080 Z" fill="url(#path)"/>
  <path d="M604,1080 C740,988 910,946 1070,910 C1190,884 1290,846 1338,788 C1284,850 1170,900 1044,932 C900,968 780,1012 700,1080 Z" fill="#F4EACB" opacity="0.6"/>
  <path d="M540,1080 C700,978 900,936 1090,900 C1210,876 1300,834 1352,776" stroke="#CBB98C" stroke-width="3" fill="none" opacity="0.4"/>

  <!-- ===== LEFT FRAMING TREES ===== -->
  <use href="#tree" transform="translate(300,984) scale(1.02)"/>
  <use href="#tree" transform="translate(126,1010) scale(1.42)"/>

  <!-- ===== RIGHT FRAMING TREE (larger, darker anchor) ===== -->
  <use href="#tree" transform="translate(1836,1018) scale(1.78) scale(-1,1)"/>
  <ellipse cx="1792" cy="500" rx="238" ry="270" fill="#283B21" opacity="0.22" filter="url(#softer)"/>

  <!-- ===== FOREGROUND SHRUBS ===== -->
  <use href="#shrub" transform="translate(360,1010) scale(1.25)"/>
  <use href="#shrub" transform="translate(250,1052) scale(1.4)"/>
  <use href="#shrub" transform="translate(1500,1024) scale(1.3)"/>
  <use href="#shrub" transform="translate(1640,1058) scale(1.5)"/>

  <!-- ===== GRASS TUFTS ===== -->
  <g fill="none" stroke="#A6BC7C" stroke-width="2.6" stroke-linecap="round" opacity="0.6">
    <path d="M470,1006 q-3,-12 2,-20 M478,1006 q3,-10 -1,-18"/>
    <path d="M640,1052 q-3,-12 2,-20 M648,1052 q3,-10 -1,-18"/>
    <path d="M1180,1000 q-3,-11 2,-18 M1188,1000 q3,-9 -1,-16"/>
    <path d="M1360,1044 q-3,-12 2,-20 M1368,1044 q3,-10 -1,-18"/>
    <path d="M820,1066 q-3,-12 2,-20 M828,1066 q3,-10 -1,-18"/>
  </g>

  <!-- ===== PIG TRIO (right pig with staff, left pig with bundle) ===== -->
  <!-- right pig + staff -->
  <g transform="translate(1052,988) scale(1.16)">
    <path d="M42,10 L34,-176" stroke="#6A4E38" stroke-width="5" fill="none" stroke-linecap="round"/>
    <path d="M42,10 L34,-176" stroke="#8E7052" stroke-width="1.6" fill="none" stroke-linecap="round" opacity="0.5"/>
    <ellipse cx="34" cy="-178" rx="8" ry="6" fill="#6A4E38"/>
  </g>
  <use href="#pig" transform="translate(1052,988) scale(1.16)"/>
  <g transform="translate(1052,988) scale(1.16)">
    <path d="M30,-70 C40,-64 44,-52 42,-40" stroke="#5C6E3B" stroke-width="9" fill="none" stroke-linecap="round"/>
    <ellipse cx="41" cy="-40" rx="7" ry="6" fill="#A17E63"/>
  </g>

  <!-- middle pig -->
  <use href="#pig" transform="translate(960,1001) scale(1.22)"/>

  <!-- left pig + shoulder bundle (bindle) -->
  <use href="#pig" transform="translate(870,1014) scale(1.28)"/>
  <g transform="translate(870,1014) scale(1.28)">
    <!-- stick over shoulder -->
    <path d="M-8,-118 C-28,-134 -46,-152 -58,-176" stroke="#7A5C42" stroke-width="4.6" fill="none" stroke-linecap="round"/>
    <path d="M-8,-118 C-28,-134 -46,-152 -58,-176" stroke="#9A7A5A" stroke-width="1.5" fill="none" stroke-linecap="round" opacity="0.55"/>
    <!-- tied cloth sack -->
    <path d="M-58,-150 C-77,-150 -85,-133 -76,-119 C-64,-105 -41,-107 -35,-124 C-32,-139 -46,-150 -58,-150 Z" fill="#D8B47E"/>
    <path d="M-58,-150 C-71,-150 -79,-139 -75,-127 C-70,-137 -63,-145 -55,-147 Z" fill="#E8C994" opacity="0.7"/>
    <!-- cloth folds -->
    <path d="M-64,-146 C-67,-135 -64,-124 -57,-116 M-47,-146 C-43,-135 -43,-124 -48,-115" stroke="#B79766" stroke-width="1.5" fill="none" opacity="0.6"/>
    <!-- knot -->
    <path d="M-65,-152 C-58,-159 -49,-159 -43,-152 C-50,-149 -58,-149 -65,-152 Z" fill="#8A7550"/>
    <ellipse cx="-54" cy="-155" rx="5.4" ry="4" fill="#9C865E"/>
  </g>

  <!-- ===== BIRDS ===== -->
  <g stroke="#6E7F86" stroke-width="2" fill="none" opacity="0.5" stroke-linecap="round">
    <path d="M660,300 q7,-7 14,0 q7,-7 14,0"/>
    <path d="M710,318 q6,-6 12,0 q6,-6 12,0"/>
    <path d="M738,296 q5,-5 10,0 q5,-5 10,0"/>
  </g>

  <!-- ===== GRAIN ===== -->
  <rect width="1920" height="1080" filter="url(#grain)" opacity="0.12" style="mix-blend-mode:soft-light"/>
</svg>
